
<svg xmlns="http://www.w3.org/2000/svg" version="1.1" xmlns:xlink="http://www.w3.org/1999/xlink" preserveAspectRatio="none" x="0px" y="0px" width="457px" height="348px" viewBox="0 0 457 348">
<defs>
<g id="Layer4_0_FILL">
<path fill="#FF3300" stroke="none" d="
M 476.5 361.7
Q 460.76953125 357.1751953125 446.4 365.3 432.184375 373.3931640625 423.3 387.3 414.77109375 400.6099609375 408.05 415.1 401.3388671875 429.6177734375 391.6 442.05 382.6078125 453.6076171875 370.45 461.85
L 370.4 461.85
Q 359.06953125 469.665625 346.25 474.95 332.8861328125 480.345703125 318.95 483.85 305.537890625 487.126171875 291.9 489.5 278.499609375 491.86171875 264.85 493.5 264.3119140625 493.464453125 262.6 493.25
L 262.6 493.25
Q 260.596875 493.034375 260 493.1 259.6484375 493.13671875 259.4 493.4 259.1365234375 493.6603515625 259.1 494
L 259.05 494.5 258.55 494.7
Q 258.181640625 494.8427734375 258 495.2
L 255.9 499.3
Q 255.79609375 499.5140625 255.8 499.75 255.79609375 499.985546875 255.9 500.2 256.239453125 500.8736328125 256.8 501.05 265.4771484375 505.787890625 275.8 506.25 276.091796875 506.258203125 276.3 506.1 290.0533203125 507.5 303.8 506.75
L 303.85 506.75
Q 317.712890625 506.340625 331.3 503.9 345.1255859375 501.5154296875 358.5 497.65 372.1888671875 493.640625 385.15 488.1 398.05234375 482.603125 409.9 475.65 421.915625 468.691015625 432.7 460.25 437.0748046875 456.8375 441.35 453.35 441.3955078125 453.35859375 441.4 453.35 436.150390625 463.3951171875 430.25 473 422.5 485.775 414.75 498.65 407.45 510.7748046875 400 522.95 399.7806640625 523.32734375 399.85 523.7 399.9384765625 523.990625 400.1 524.15 400.0974609375 524.272265625 400.1 524.35 400.105859375 524.787890625 400.4 525.05 421.8998046875 545.6248046875 443.3 566.3 448.3796875 571.2453125 454.5 575.1 462.7453125 580.1201171875 471.5 576.65 471.5599609375 576.734375 471.65 576.8 471.98671875 577.053515625 472.4 577 474.2892578125 576.7193359375 475.15 575.2
L 475.15 575.2
Q 478.6818359375 569.2228515625 472.45 565.4
L 472.45 565.4
Q 469.1927734375 563.48515625 465.6 562.45
L 465.6 562.4
Q 457.0373046875 560.2072265625 451.55 552.75 446.6837890625 546.116796875 440.5 540.7 431.6068359375 532.8888671875 426.75 522.35
L 487.95 458.3
Q 490.6009765625 455.5755859375 493 452.7 500.1423828125 444.138671875 497.8 434.2 497.8390625 434.2109375 497.85 434.2 510.9890625 430.4818359375 524.55 429 527.3642578125 428.7173828125 530.15 428.35 531.25 440.3126953125 528.5 452.2 525.9423828125 463.584765625 521.35 474.25
L 521.35 474.25
Q 520.673046875 476.00859375 521.25 477.55 522.3259765625 480.324609375 524.2 480.8 526.0521484375 481.46796875 528.6 479.85 534.97421875 475.928125 539 469.4 547.34296875 456.0154296875 553.45 441.45 557.4109375 432.188671875 560.75 421.15 571.6349609375 416.8361328125 580.5 408.75 591.2935546875 398.9310546875 600.15 387.2 602.8412109375 383.6556640625 605.55 380.15 607.5369140625 379.866015625 610.75 380
L 610.75 380
Q 613.92265625 380.0533203125 616.8 380.45
L 616.75 380.4
Q 620.8353515625 381.201171875 625.05 381
L 625.05 381
Q 631.97265625 380.52578125 636.4 375.85 636.4369140625 375.8240234375 636.45 375.8 636.9630859375 375.24296875 637.05 374.25 637.4251953125 370.871484375 635.25 368.45 635.2517578125 368.1337890625 635 367.85 633.300390625 365.7869140625 631.45 363.8 621.008984375 352.5341796875 606.4 347.65 606.15625 347.5599609375 605.9 347.6 604.9408203125 347.4263671875 604 347.3 604.71796875 347.071484375 605.55 346.8 605.858203125 346.6931640625 606.05 346.4 606.2453125 346.1666015625 606.25 345.85 606.2498046875 345.8119140625 606.25 345.75 607.1986328125 345.29453125 608.15 343.8 608.199609375 343.7748046875 608.2 343.75 608.673828125 342.9396484375 609.55 341.25
L 609.6 341.25
Q 610.4064453125 339.6998046875 610.7 338.5
L 610.7 338.45
Q 611.313671875 335.9076171875 611.1 333.5 611.0849609375 330.652734375 610.45 328.55
L 610.45 328.55
Q 609.4486328125 325.3818359375 607.35 323.7 607.1322265625 323.5283203125 606.8 323.5 606.51953125 323.4736328125 606.25 323.6 604.9220703125 324.3658203125 603.75 325.95 603.164453125 326.844140625 602.15 328.7 602.135546875 328.7486328125 602.1 328.75 601.7599609375 329.3736328125 601.4 330.05 601.1626953125 329.6986328125 600.95 329.4
L 600.95 329.45
Q 599.7595703125 327.6017578125 598.7 326.55 596.740234375 324.5875 594.7 323.45 594.58203125 323.39765625 594.4 323.35
L 593.75 323.25
Q 593.5892578125 323.2416015625 593.4 323.25 592.336328125 323.3337890625 591.85 324.95 591.851171875 325.0880859375 591.85 325.2 591.7892578125 326.1673828125 592.05 327.45 592.227734375 328.1158203125 592.6 329.4 592.8572265625 330.7203125 593 333.25
L 593 333.3
Q 592.999609375 336.2380859375 593.1 337.75 593.10078125 340.2201171875 593.8 341.95 594.0244140625 342.4875 594.5 343.5 594.5361328125 343.5259765625 594.55 343.55 594.80625 344.174609375 594.85 344.65 594.7189453125 345.25 595.5 346.9 595.7232421875 347.4125 595.9 347.75 590.207421875 349.357421875 585.7 354.65
L 585.75 354.65
Q 579.791015625 361.6232421875 576.25 370.2
L 576.25 370.2
Q 575.4619140625 372.0568359375 573.2 373.55
L 573.25 373.5
Q 570.5837890625 375.034375 569.05 375.95 555.066015625 368.749609375 540.75 373.85 537.090234375 375.16328125 533.8 377.1 533.7396484375 377.1123046875 533.65 377.1 518.903515625 379.9037109375 505.55 373.1 491.5154296875 366.1177734375 476.5 361.7
M 607.25 362.7
L 607.2 362.1
Q 607.15 362.05 606.95 361.55 606.65 360.7 606.95 360.15 607 360.1 607.05 360.05 607.3 359.65 608.05 359.15 608.15 359 608.35 358.95 608.45 358.95 609.1 358.6 610.1 358 610.95 358.05
L 611.05 358
Q 611.65 358.05 612.75 358.4 612.95 358.45 613.1 358.55 613.3 358.75 613.4 358.9 613.95 360.25 614.05 360.6 614.25 361.55 614.2 362.15 614.35 363 614.05 363.5 614.05 363.55 614.05 363.6 613.95 363.75 613.9 363.9 613.45 364.6 612.35 365.1 612.25 365.15 612.15 365.15 611.85 365.2 611.55 365.3 611.2 365.35 610.85 365.15 610.15 365.4 609.7 365.15 609.5 365.1 609.35 364.95 609.05 364.65 608.9 364.5
L 608.85 364.45 608.35 364.25
Q 607.7 364 607.5 363.5 607.3 363.15 607.25 362.7 Z"/>

<path fill="#000000" stroke="none" d="
M 607.2 362.1
L 607.25 362.7
Q 607.3 363.15 607.5 363.5 607.7 364 608.35 364.25
L 608.85 364.45 608.9 364.5
Q 609.05 364.65 609.35 364.95 609.5 365.1 609.7 365.15 610.15 365.4 610.85 365.15 611.2 365.35 611.55 365.3 611.85 365.2 612.15 365.15 612.25 365.15 612.35 365.1 613.45 364.6 613.9 363.9 613.95 363.75 614.05 363.6 614.05 363.55 614.05 363.5 614.35 363 614.2 362.15 614.25 361.55 614.05 360.6 613.95 360.25 613.4 358.9 613.3 358.75 613.1 358.55 612.95 358.45 612.75 358.4 611.65 358.05 611.05 358
L 610.95 358.05
Q 610.1 358 609.1 358.6 608.45 358.95 608.35 358.95 608.15 359 608.05 359.15 607.3 359.65 607.05 360.05 607 360.1 606.95 360.15 606.65 360.7 606.95 361.55 607.15 362.05 607.2 362.1
M 612.25 362.5
Q 612.25 362.55 612.3 362.6 612.25 362.75 612.15 362.9
L 612.15 362.95
Q 612.1 362.95 612.05 363.05 611.8 362.9 611.5 362.9 611.65 362.6 612 362.5 612.1 362.5 612.25 362.5 Z"/>

<path fill="#FFFFFF" stroke="none" d="
M 612.3 362.6
Q 612.25 362.55 612.25 362.5 612.1 362.5 612 362.5 611.65 362.6 611.5 362.9 611.8 362.9 612.05 363.05 612.1 362.95 612.15 362.95
L 612.15 362.9
Q 612.25 362.75 612.3 362.6 Z"/>
</g>

<g id="Layer2_0_FILL">
<path fill="#CCCCCC" stroke="none" d="
M 571.9 370.05
Q 571.827734375 370.1046875 571.75 370.15 571.25 370.45 570.5 370.6
L 569.9 370.7
Q 570.0171875 370.8443359375 570.1 370.95 569.9119140625 371.1056640625 569.65 371.25 569.5646484375 371.3513671875 569.45 371.45
L 568.6 372.45
Q 568.56875 372.5009765625 568.55 372.5 567.8720703125 373.106640625 567.4 374.05 566.9517578125 374.55234375 566.75 375.1 566.953125 375.3708984375 567.2 375.7 567.5615234375 376.2708984375 568 376.9 568.1107421875 376.8671875 568.2 376.8 568.807421875 377.6728515625 570.95 380.6
L 570.9 380.6
Q 572.6232421875 383.06015625 573.65 384.65 577.9380859375 391.077734375 579.8 396.3
L 579.8 396.3
Q 580.9716796875 400.03984375 581.85 405.65 581.8623046875 405.673046875 581.85 405.7 582.8619140625 410.910546875 584.1 418.9 584.190625 419.12421875 584.25 419.35 584.3451171875 419.6990234375 584.5 420.25 584.5671875 420.3396484375 584.65 420.4 584.7466796875 420.469140625 584.85 420.5 584.716796875 420.5505859375 584.55 420.55 584.638671875 420.7748046875 584.7 421 584.8626953125 421.5857421875 585.2 422.5 588.953515625 421.7220703125 592.45 419.85 596.9173828125 417.49765625 600.3 413.75
L 600.3 413.8
Q 606.47578125 407.368359375 608.7 398.1 608.744921875 398.1076171875 608.8 398.1 608.773828125 397.18203125 608.85 396 608.1365234375 395.7408203125 607.45 395.5 607.2951171875 395.6255859375 607.2 395.8 603.006640625 394.8626953125 599.05 392.95 599.010546875 392.801953125 598.9 392.65 598.6837890625 392.34140625 598.25 392.25 595.346875 391.712890625 591.15 388
L 591.15 387.95 585 382.8 585 382.85
Q 580.2671875 378.8037109375 578.85 377.55 575.5212890625 374.502734375 573.25 371.85 573.1892578125 371.778125 573.1 371.7 573.224609375 371.680078125 573.3 371.6 572.4291015625 370.785546875 571.9 370.05
M 529.65 440.65
Q 528.046484375 439.9041015625 527.35 439.3 526.652734375 439.7494140625 525.75 439.95 525.5423828125 439.999609375 525.35 440 525.3701171875 440.080078125 525.4 440.1 525.3650390625 440.17265625 525.3 440.2 523.9603515625 441.932421875 524.25 444.25
L 524.25 444.25
Q 524.4953125 446.455078125 526 448.05 528.1298828125 450.2517578125 532.8 451.2 537.5765625 452.2484375 545.1 452.25 550.4359375 452.251171875 553.1 450.7
L 553.1 450.7
Q 555.095703125 449.487890625 556 447.35 556.9462890625 445.162109375 556.2 443.35 556.2564453125 443.3388671875 556.3 443.3 555.759375 442.709375 555.4 442.35
L 554.75 441.7
Q 548.9859375 443.2830078125 542.75 443.1 536.0783203125 442.9009765625 529.65 440.65 Z"/>
</g>

<g id="Layer1_0_FILL">
<path fill="#33CC99" stroke="none" d="
M 533.5 374.6
L 533.5 374.55
Q 532.7794921875 374.7970703125 532.25 375.15 531.05 376.1 530.4 376.55 529.6017578125 377.044140625 528.75 377.25 525.1427734375 381.490234375 522.4 388.75 516.862890625 403.3958984375 516.1 418.8
L 516.1 418.8
Q 515.8861328125 424.9755859375 517.05 428.1
L 517.05 428.05
Q 517.9208984375 430.566015625 519.5 432.35 521.2521484375 434.3822265625 523.55 435.05 523.8845703125 435.1453125 524.15 435.05 524.2123046875 435.4755859375 524.25 435.9 524.483984375 438.923828125 525.55 440.3 525.5734375 440.3615234375 525.6 440.4 526.3576171875 441.32578125 528.9 442.5 528.9765625 442.5265625 529 442.55 535.721484375 444.8986328125 542.7 445.1 549.8439453125 445.3001953125 556.4 443.3 556.6123046875 443.2314453125 556.75 443.05 556.9419921875 442.927734375 557 442.7 557.37890625 441.8224609375 557.7 440.9 558.0662109375 441.070703125 558.4 440.95 570.5498046875 436.8228515625 579.85 427.35
L 579.85 427.35
Q 583.096875 424.0748046875 585.7 420.45 585.9064453125 420.390625 586.05 420.2 586.076953125 420.1640625 586.1 420.1 586.1 419.6595703125 586.1 419.3 586.1 418.110546875 586.15 417.1 586.1044921875 416.756640625 586.05 416.4 585.953125 416.59609375 585.8 416.8 584.718359375 409.9583984375 583.8 405.3
L 583.85 405.35
Q 582.928125 399.56015625 581.7 395.7
L 581.7 395.65
Q 579.7619140625 390.222265625 575.3 383.55 574.2767578125 381.9396484375 572.55 379.45
L 572.55 379.45
Q 570.0708984375 376.0486328125 569.65 375.45 569.4494140625 375.1068359375 569.05 375 568.6921875 374.9533203125 568.35 375.1 568.25078125 374.9580078125 568.05 374.85 564.4861328125 373.0193359375 561.05 371.8 556.9482421875 370.156640625 553.95 369.85 550.5443359375 369.47890625 544.3 370.75 539.626953125 371.694140625 536.7 372.9 536.4671875 373.023046875 536.2 373.1 535.1013671875 373.6541015625 533.7 374.5 533.6119140625 374.547265625 533.5 374.6 Z"/>
</g>

<path id="Layer4_1_1_STROKES" stroke="#000000" stroke-width="5" stroke-linejoin="round" stroke-linecap="round" fill="none" d="
M 611.5 360.6
Q 611.25 361.25 611.6 362.6"/>

<path id="Layer1_1_1_STROKES" stroke="#33CC99" stroke-width="2" stroke-linejoin="round" stroke-linecap="round" fill="none" d="
M 335.4527221679688 141.0027648925781
Q 329.20524291992194 132.2919250488281 328.53360595703134 120.96592407226564 327.84931030273435 109.73911743164058 332.94682006835944 100.20784912109377 338.1245361328125 90.83803100585936 347.9001586914062 85.33129272460934 357.7317077636719 79.78128662109373 368.416162109375 80.18709106445311 380.1674743652344 80.52742309570311 394.0697265625 88.50136108398436 406.73308715820315 95.91395874023436 412.9035766601563 105.62307128906252 420.02595825195317 116.56256713867191 418.7993103027345 130.5193969726563 417.62225952148447 144.48255615234376 408.6488037109375 153.97283935546875 399.75555419921875 163.6245727539063 385.9571655273438 165.89608154296883 372.2083740234375 168.17391967773443 360.6024291992188 161.9547668457031"/>

<path id="Layer1_2_1_STROKES" stroke="#33CC99" stroke-width="2" stroke-linejoin="round" stroke-linecap="round" fill="none" d="
M 333.0724731445313 126.08159179687499
Q 332.48540039062493 118.04270019531248 334.370819091797 110.77297973632812 336.4377136230469 102.87115478515625 341.1407287597657 97.22112426757815 347.40543212890634 89.60297851562501 357.66447143554683 86.62777099609372 367.5510131835938 83.8066467285156 377.58551635742197 86.14570312500001 386.9815856933594 88.35288085937498 395.4428833007812 94.72518310546872 403.2541259765625 100.66169433593745 409.1544250488282 109.32822875976564 416.593377685547 120.15690917968755 416.02923583984375 129.71224975585938 415.5072204589844 137.35758056640623 409.64251098632815 146.186083984375 402.0979309082031 157.1188354492188 392.63037109375 161.0015258789062 383.616552734375 164.4884765624999 372.4159973144532 162.20223388671872 357.7752868652344 159.22495117187503 346.8835205078126 147.80442504882814 336.0413513183594 136.39022827148438 333.7413085937501 121.63050537109376"/>

<path id="Layer1_3_1_STROKES" stroke="#33CC99" stroke-width="2" stroke-linejoin="round" stroke-linecap="round" fill="none" d="
M 572.5 372.5
Q 574.8 375.2 578.2 378.3 579.6 379.55 584.35 383.6
L 590.5 388.75
Q 594.95 392.7 598.1 393.25"/>

<path id="Layer1_4_1_STROKES" stroke="#33CC99" stroke-width="5" stroke-linejoin="round" stroke-linecap="round" fill="none" d="
M 570.6 364.1
Q 564.85 354.1 567.55 341.75 570.2 329.65 579.35 322.25 588.2 314.95 600.55 313.8 612.55 312.65 623.35 317.6 633.7 322.3 641.55 331.6 649 340.45 652.85 351.85 651.95 343.3 646.75 336.35"/>

<path id="Layer1_5_1_STROKES" stroke="#33CC99" stroke-width="5" stroke-linejoin="round" stroke-linecap="round" fill="none" d="
M 567.35 349.85
Q 567.6 345.25 569.25 339.8 570.3 336.4 572.75 330.1 573.6 327.9 574.5 326.75"/>

<path id="Layer1_6_1_STROKES" stroke="#33CC99" stroke-width="5" stroke-linejoin="round" stroke-linecap="round" fill="none" d="
M 570.35 364.75
Q 569.9 365.1 570.1 366.1 570.8 367.95 570.85 368 571.1 368.5 571.65 369.15 571.95 369.55 572.6 370.25 576.8841796875 374.5341796875 578.95 376.65 579.4203125 377.1314453125 579.775 377.5 580.0451171875 377.7828125 580.25 378"/>

<path id="Layer1_7_1_STROKES" stroke="#33CC99" stroke-width="5" stroke-linejoin="round" stroke-linecap="round" fill="none" d="
M 571.25 365.75
Q 577.45 374.75 581.4 379.3 587.55 386.4 594 390.25 603.65 396.1 615.45 395.95 627.25 395.75 636.6 389.6 645.95 383.3 650.4 372.35 654.95 361.35 652.5 350.5"/>

<path id="Layer1_8_1_STROKES" stroke="#33CC99" stroke-width="5" stroke-linejoin="round" stroke-linecap="round" fill="none" d="
M 569 360.6
Q 569.2 359.75 569 358.5 568.65 357 568.5 356.25 568.25 355.35 568.25 353.5
L 568.25 343.25"/>

<path id="Layer1_9_1_STROKES" stroke="#33CC99" stroke-width="5" stroke-linejoin="round" stroke-linecap="round" fill="none" d="
M 569.1 358.6
Q 568.6 350.05 569 340.5"/>
</defs>

<g transform="matrix( 1, 0, 0, 1, -236.65,-231.15) ">
<use xlink:href="#Layer4_0_FILL"/>
</g>

<g transform="matrix( 1, 0, 0, 1, -236.65,-231.15) ">
<use xlink:href="#Layer4_1_1_STROKES"/>
</g>

<g transform="matrix( 1, 0, 0, 1, -236.65,-231.15) ">
<use xlink:href="#Layer2_0_FILL"/>
</g>

<g transform="matrix( 1, 0, 0, 1, -236.65,-231.15) ">
<use xlink:href="#Layer1_0_FILL"/>
</g>

<g transform="matrix( 0.991943359375, 0.1265869140625, -0.1265869140625, 0.991943359375, -255.4,-357.8) ">
<use xlink:href="#Layer1_1_1_STROKES" transform="matrix( 0.9919586181640625, -0.1265869140625, 0.1265869140625, 0.9919586181640625, 298.6,322.55) "/>
</g>

<g transform="matrix( 0.991943359375, 0.1265869140625, -0.1265869140625, 0.991943359375, -255.4,-357.8) ">
<use xlink:href="#Layer1_2_1_STROKES" transform="matrix( 0.9919586181640625, -0.1265869140625, 0.1265869140625, 0.9919586181640625, 298.6,322.55) "/>
</g>

<g transform="matrix( 1, 0, 0, 1, -236.65,-231.15) ">
<use xlink:href="#Layer1_3_1_STROKES"/>
</g>

<g transform="matrix( 1, 0, 0, 1, -236.65,-231.15) ">
<use xlink:href="#Layer1_4_1_STROKES"/>
</g>

<g transform="matrix( 1, 0, 0, 1, -236.65,-231.15) ">
<use xlink:href="#Layer1_5_1_STROKES"/>
</g>

<g transform="matrix( 1, 0, 0, 1, -236.65,-231.15) ">
<use xlink:href="#Layer1_6_1_STROKES"/>
</g>

<g transform="matrix( 1, 0, 0, 1, -236.65,-231.15) ">
<use xlink:href="#Layer1_7_1_STROKES"/>
</g>

<g transform="matrix( 1, 0, 0, 1, -236.65,-231.15) ">
<use xlink:href="#Layer1_8_1_STROKES"/>
</g>

<g transform="matrix( 1, 0, 0, 1, -236.65,-231.15) ">
<use xlink:href="#Layer1_9_1_STROKES"/>
</g>
</svg>
