
<svg xmlns="http://www.w3.org/2000/svg" version="1.1" xmlns:xlink="http://www.w3.org/1999/xlink" preserveAspectRatio="none" x="0px" y="0px" width="457px" height="348px" viewBox="0 0 457 348">
<defs>
<g id="Layer4_0_FILL">
<path fill="#FF3300" stroke="none" d="
M 509.3 74.4
Q 511.85 73.35 511.7 70.6 511.35 64.7 506.6 60.35 494.95 49.9 480.75 43.45 479.45 42.85 478.2 42.3 479.1 41.75 479.85 40.7 480.5 39.85 481.5 37.2
L 481.5 37.15
Q 483.15 31.85 483.3 28.75 483.7 21.05 478.95 14.75 477.7 13.05 476.4 12.9 476.3 12.85 476.15 12.85 475.8 12.8 475.55 13 475.25 13.15 475.15 13.5 474.25 15.7 473.6 19.7
L 472.95 23.3
Q 472.9 23.3 472.9 23.35 472.85 23.7 472.85 24.05 472.65 23.75 472.6 23.55 472.55 23.5 472.55 23.45 472.55 23.05 472.25 22.75 472.15 22.65 472.1 22.6 471.2 20.7 469.8 19.6 468.85 18.8 467.85 18.5
L 467.8 18.5
Q 466.2 18.1 465.3 18.9 464.1 19.65 464.05 21.5 463.95 22.6 464.4 24.25
L 464.4 24.2
Q 464.9 26.25 464.95 26.45 465.15 27.35 465.15 29.1 465.15 29.15 465.15 29.2 465.35 31.4 466.2 33.95 466.25 34 466.3 34.1 466.7 34.85 467.55 36.45
L 467.5 36.4 469.4 40.15 469.45 40.2
Q 470.05 41.3 470.35 41.8 467.8 42.6 465.55 44.65 454.1 54.55 448.1 68.45 443.6 78.8 443.1 90.1 441.25 89.6 439.4 89.15 438.6 88.9 437.85 88.8 437.75 88.75 437.6 88.75 424.55 89.35 413.7 96.9 399.75 94.25 385.8 92.2 371.85 90.1 357.7 90.15 342 90.25 327.05 94.8 311.9 99.45 299.45 109.2 287.55 118.45 277.2 129.6 268.2 139.15 259.05 148.55 250.05 157.7 240.5 166.25 229.1 176.3 216.8 185.1 206.35 192.4 195.25 198.45 181.4 205.9 166.4 210.35
L 166.35 210.35
Q 163.7 211.2 161 211.95 146.5 211.8 132.6 207.35 130.15 206.65 127.5 207.25
L 127.55 207.2
Q 125.45 207.5 123.5 208.15 123.25 208.25 123.05 208.45 122.85 208.65 122.8 208.95 122.75 209.2 122.9 209.5 127 219.3 137.7 222.4 158.25 228.3 179.8 226.7
L 179.85 226.7
Q 215.65 224.5 246.1 205.65 245.5 207.25 245.1 209 241.5 223.85 240.1 239.15 238.7 254.55 231.55 268 229 272.6 225.9 277.1 224.25 279.35 224.55 281.3 224.75 283.25 226.9 284.8
L 226.85 284.8
Q 229.1 286.45 231.4 285.4 231.7 285.25 231.85 284.95
L 232.2 284.2
Q 232.25 284.2 232.3 284.2 232.7 284.2 233 283.95 243.85 273.35 248 258.85 252.15 244.55 257 230.6 260.55 220.35 268.3 212.65
L 268.3 212.7
Q 277.1 204 289.15 200.9
L 289.2 200.9
Q 302.9 197.1 317.2 194.75
L 317.25 194.75
Q 328.9 192.65 340.65 191.5 347.4 190.9 353.4 188.45 365.05 183.8 367.55 171.25 369.1 163.05 367.25 155 366.85 153.35 366.5 151.7 381.15 146.1 396.95 148.45 411.55 150.85 426.35 150.55
L 426.4 150.55
Q 427.25 150.5 428.1 150.45 430.6 152.5 432.95 154.85
L 432.95 154.8
Q 442.5 164.25 439.35 176.95
L 439.35 177
Q 438.65 179.8 439.7 182.25 441.3 186 445.05 184.5 453.6 180.95 456.05 171.7 458.35 162.85 455.4 154.25 453.8 149.4 451.6 144.95 453.85 144.05 456.15 143 471.5 135.65 474.05 119.05 475.2 111.25 474.5 103.4 473.45 91.85 476.65 80.65
L 476.7 80.65
Q 477.45 77.75 478.75 75.05 478.9 75.3 479.25 75.4 494.55 80.55 509.3 74.4
M 486.3 54.15
Q 486.75 55.45 486.85 55.85 487 56.8 487 57.35 487.15 58.25 486.85 58.7 486.8 58.75 486.85 58.8 486.75 58.95 486.7 59.1 486.25 59.8 485.05 60.25 484.95 60.3 484.85 60.3 484.6 60.35 484.3 60.4 483.9 60.5 483.6 60.3 482.85 60.5 482.45 60.25 482.2 60.2 482.1 60.05 481.8 59.75 481.65 59.6
L 481.6 59.55 481.15 59.3
Q 480.45 58.95 480.3 58.55 480.1 58.2 480.05 57.75
L 480 57.15
Q 480 57.1 479.8 56.55 479.5 55.75 479.85 55.2 479.85 55.15 479.9 55.1 480.2 54.65 480.95 54.15 481.05 54.05 481.25 54 481.35 54 482 53.65 483.05 53.1 483.85 53.15
L 483.95 53.15
Q 484.55 53.2 485.7 53.6 485.85 53.65 486.05 53.8 486.2 53.95 486.3 54.15
M 484.95 58.1
L 484.9 58.05
Q 485 57.9 485.1 57.8 485 57.75 485 57.7 484.9 57.65 484.8 57.7 484.45 57.75 484.3 58.05 484.55 58.05 484.8 58.15 484.9 58.15 484.95 58.1 Z"/>

<path fill="#000000" stroke="none" d="
M 486.85 55.85
Q 486.75 55.45 486.3 54.15 486.2 53.95 486.05 53.8 485.85 53.65 485.7 53.6 484.55 53.2 483.95 53.15
L 483.85 53.15
Q 483.05 53.1 482 53.65 481.35 54 481.25 54 481.05 54.05 480.95 54.15 480.2 54.65 479.9 55.1 479.85 55.15 479.85 55.2 479.5 55.75 479.8 56.55 480 57.1 480 57.15
L 480.05 57.75
Q 480.1 58.2 480.3 58.55 480.45 58.95 481.15 59.3
L 481.6 59.55 481.65 59.6
Q 481.8 59.75 482.1 60.05 482.2 60.2 482.45 60.25 482.85 60.5 483.6 60.3 483.9 60.5 484.3 60.4 484.6 60.35 484.85 60.3 484.95 60.3 485.05 60.25 486.25 59.8 486.7 59.1 486.75 58.95 486.85 58.8 486.8 58.75 486.85 58.7 487.15 58.25 487 57.35 487 56.8 486.85 55.85
M 484.9 58.05
L 484.95 58.1
Q 484.9 58.15 484.8 58.15 484.55 58.05 484.3 58.05 484.45 57.75 484.8 57.7 484.9 57.65 485 57.7 485 57.75 485.1 57.8 485 57.9 484.9 58.05 Z"/>
</g>

<g id="Layer2_0_FILL">
<path fill="#CCCCCC" stroke="none" d="
M 452.2 142.25
Q 452.15 142.2 452.15 142.15 451.5 141.15 451.15 140.65 450.85 140.25 450.1 139.5 449.95 139.35 449.8 139.3
L 449.8 139.25
Q 449.15 137.95 448.5 137.55 448.15 137.3 447.8 137.4 447.65 137.35 447.45 137.4 447.05 137.45 446.85 137.8 440.5 147.2 430.1 152.3 429.75 152.5 429.6 152.9 429.45 153.25 429.65 153.65 429.7 153.75 429.75 153.8 429.6 154.1 429.7 154.45 430.25 156.85 432.75 158.2 435.05 159.4 437.6 158.95
L 437.55 158.95
Q 439.65 158.7 441.9 157.45 443.1 156.75 445.5 155
L 448.65 152.65
Q 450.9 150.95 452.05 149.65 453.5 147.85 453.65 146.05 453.75 145.9 453.85 145.75 454 145.35 453.85 145 453.7 144.65 453.5 144.35 453.45 144.25 453.35 144.15 453.25 144.05 453.25 144 453.15 143.8 453 143.65 452.8 143.45 452.75 143.25 452.7 143.2 452.7 143.15
L 452.2 142.25
M 442.65 75.7
Q 441.85 76.35 441.45 76.55 441.3 76.65 441.2 76.75
L 440.45 77.4
Q 440.3 77.55 440.2 77.8
L 439.85 78.65 439.9 78.6
Q 439.8 78.8 439.6 79.05
L 439.55 79.1
Q 439.1 79.55 438.9 79.85 438.75 79.95 438.7 80.15 438.55 80.65 438.35 81 438.1 81.2 437.95 81.3
L 437.9 81.35
Q 437.5 81.7 437.35 82.05 437.05 82.2 436.9 82.55 436.7 82.9 436.85 83.3 437 83.7 437.4 83.85 444.6 87.25 445.7 87.85 450.35 90.15 453.6 92.3 460.45 96.9 465.8 103.3 471.2 109.75 474.5 117.25 474.65 117.65 475.05 117.8 475.2 117.85 475.45 117.85 476 121.95 475.55 126.1 475.8 126.75 476.1 127.75
L 476.55 128.55
Q 476.65 128.7 477.1 129.8 477.3 129.6 477.4 129.4 477.75 129.1 478.35 128.45 478.5 128.3 478.65 128.1 478.7 128.1 478.8 128.1 479.2 128.05 479.45 127.7 486.35 118.6 486.55 109 486.65 103.4 484.25 98.15 482.65 94.65 480.2 91.85
L 480.25 91.85
Q 478.85 90.1 478.25 89.55
L 478.2 89.5
Q 478 89.45 477.85 89.45 477.7 89.3 477.55 89.2 477.25 88.9 476.85 88.95 476.65 88.95 476.5 89.05 476.15 88.8 475.75 88.9 474.4 89.1 472.75 88.45 470.45 87.3 469.3 86.8
L 469.35 86.8
Q 468.3 86.3 466.65 85.85
L 466.6 85.85
Q 464.9 85.4 464.1 85.15 460.55 84.05 456.7 82 454 80.55 449.7 77.75
L 449.7 77.8
Q 447.8 76.5 446.65 75.9 446.45 75.45 446.35 75.2
L 446.3 75.15
Q 445.4 75.35 444 75.55 443.1 75.65 442.7 75.65
L 442.65 75.7 Z"/>
</g>

<g id="Layer1_0_FILL">
<path fill="#33CC99" stroke="none" d="
M 434.45 156.2
Q 434.35 156.2 434.3 156.2 434.05 156.2 434.55 156.4
L 434.65 156.6
Q 434.65 156.5 434.65 156.45
L 434.8 156.85
Q 434.8 156.5 434.7 156.3
L 434.65 156.25
Q 434.6 156.2 434.6 156.15 434.45 155.9 434.2 155.8
L 434.45 156.2
M 410.25 87.25
L 410.2 87.25
Q 408.75 88.6 407.65 90.2 407.4 90.35 407.25 90.55 406.85 90.7 406.65 91.05 406.45 91.35 406.4 91.8 406.1 91.75 405.8 91.95 405.7 92 405.6 92.1 405.35 92.2 405.2 92.5 405.15 92.55 405.1 92.6 405.05 92.65 405.05 92.7 404.9 92.85 404.8 93.05 404.45 93.15 404.3 93.45 404.2 93.65 404.15 93.85 400.75 98.35 398.15 102.6 396.55 105.2 395.25 107.75
L 395.3 107.75
Q 387.85 121.5 392.7 129.95 394.1 132.55 397.45 135.45 397.5 135.65 397.7 135.8 397.65 135.8 397.65 135.85 397.65 135.9 397.65 135.95
L 397.65 136.6
Q 397.65 136.8 397.65 136.95
L 397.65 137
Q 397.7 141 398.85 145
L 398.85 144.95
Q 399.3 146.7 400.1 147.75
L 400.15 147.75
Q 400.8 148.55 402.05 149.1
L 402 149.1
Q 402.55 149.4 403.8 149.9
L 403.85 149.9
Q 406.45 150.85 411.85 153.55 416.45 155.9 419.35 156.9 419.75 157.05 420.1 157.15
L 420.15 157.2
Q 420.2 157.2 420.3 157.25 420.6 157.55 421.2 157.8 421.55 157.95 422.3 157.95 422.6 158 423.1 158.25 424.15 158.8 424.7 158.85 424.75 158.85 424.8 158.85 425.3 158.85 426.35 158.75 426.55 158.8 427.2 159.05 427.35 159.1 427.5 159.1
L 428.9 159.2
Q 429.65 159.2 431.35 159.35
L 431.4 159.35
Q 432.55 159.35 433.3 159.2 433.4 159.15 433.5 159.1 433.9 159.1 434.25 158.85 434.55 158.75 434.75 158.55 435.05 158.25 435.05 157.85 435.1 157.35 434.8 156.9
L 434.8 156.85
Q 434.5 156.45 433.95 156.1
L 433.9 156.1
Q 433.45 155.8 433.25 155.65 433.15 155.55 433.1 155.3 432.8 154.55 432.4 154.3 432.3 154.2 432.15 154.2 431.6 153.95 431.45 153.85
L 431.4 153.85
Q 432.65 153.05 434.15 152.3
L 434.1 152.3
Q 439.95 149.25 441.1 148.55 442.25 147.75 443.25 146.95 444.65 145.8 445.9 144.55 447.55 142.7 448.55 140.85 448.7 140.95 448.85 141.05 449.3 141.5 449.5 141.8 449.8 142.25 450.45 143.25
L 450.45 143.2 450.95 144.1
Q 451.05 144.35 451.2 144.6 451.35 145 451.65 145.5
L 453.15 148.85
Q 453.15 148.9 453.2 148.95
L 453.7 149.85
Q 453.75 149.9 453.8 150 453.8 150.25 453.95 150.5 454.15 150.8 454.35 151.5
L 454.35 151.55
Q 454.6 152.25 454.95 153.7 455 154 455.25 154.2 455.4 154.5 455.75 154.65 456.15 154.8 456.55 154.6 461.2 152.4 463 151.35
L 462.95 151.4
Q 466.3 149.45 468.65 146.9 470.6 144.85 473.05 140.45
L 473.05 140.4
Q 475.25 136 476.35 132.4
L 476.4 132.4
Q 478.3 125.3 477.5 118.4 477.25 117.65 476.85 116.9
L 475.95 115.1
Q 475.85 114.85 475.75 114.65 475.65 114.7 475.55 114.75 472.45 108.25 467.85 102.6 467.6 102.3 467.35 102 461.75 95.4 454.7 90.65
L 454.7 90.6
Q 451.35 88.45 446.6 86.05
L 446.65 86.1
Q 445.75 85.6 440.85 83.3
L 436.8 82.2
Q 435.15 81.8 435 81.75 434.85 81.7 434.75 81.65 432.15 81.05 429.4 80.95 424.55 80.75 419.9 82 414.15 83.55 410.25 87.25 Z"/>
</g>

<path id="Layer4_1_1_STROKES" stroke="#000000" stroke-width="5" stroke-linejoin="round" stroke-linecap="round" fill="none" d="
M 762.85 287.35
Q 763.3 287.6 763.5 288.1 763.5 288.5 763.6 288.6 763.6 288.65 763.85 289 764.1 289.1 764.1 289.5"/>

<path id="Layer1_1_1_STROKES" stroke="#33CC99" stroke-width="2" stroke-linejoin="round" stroke-linecap="round" fill="none" d="
M 354.20617065429695 57.8531829833984
Q 351.33089237213136 48.389117121696444 353.2870300292969 38.907019042968756 355.5935791015625 28.453631591796892 363.40489501953124 20.40001831054687 371.25756225585945 12.28905029296871 381.617724609375 9.64697875976563 392.98229370117184 6.639459228515619 408.575 10.34137573242188 422.8205139160156 13.85651245117188 431.49171142578126 21.415747070312506 441.42471313476557 29.884710693359438 444.2080749511719 43.61553955078128 447.04078979492186 57.33836669921877 441.12878417968744 68.98411865234377 435.33948974609365 80.7619262695313 422.7530151367187 86.85462646484379 410.2158935546874 92.93932495117193 397.32288818359376 90.26856079101563
M 367.26341552734374 77.31323852539063
Q 361.23671822547914 72.62662029266355 357.55725708007816 65.869775390625"/>

<path id="Layer1_2_1_STROKES" stroke="#33CC99" stroke-width="2" stroke-linejoin="round" stroke-linecap="round" fill="none" d="
M 358.2245239257813 54.365258789062494
Q 357.74678950309755 51.493122744560225 357.6497985839845 48.63364868164061 357.3899353027343 40.4704223632813 360.29661254882814 33.71851196289063 364.1423950195313 24.636376953124994 373.1354431152343 18.873034667968767 381.81502685546883 13.363116455078085 392.10043334960943 12.759179687499994 401.7362487792969 12.209912109374983 411.65738525390617 15.919665527343767 420.83156738281247 19.395971679687506 428.9479064941407 26.03215942382812 439.1530212402344 34.30505371093753 441.3229370117187 43.62745971679689 442.9913757324219 51.10645751953123 439.8725158691406 61.235693359375006 435.7398498535155 73.8592163085938 427.76318359374994 80.26817626953127 420.109326171875 86.16894531249997 408.72080688476564 87.15433349609376 393.8375671386719 88.45307617187498 380.1537353515625 80.59224243164064 367.7640857458114 73.44179441928864 361.3528778076172 61.63288269042968
M 360.74791259765624 63.681005859375006
Q 360.6638755798339 63.45799880027769 360.57319030761715 63.22815551757813"/>

<path id="Layer1_3_1_STROKES" stroke="#33CC99" stroke-width="2" stroke-linejoin="round" stroke-linecap="round" fill="none" d="
M 724.85 306.75
Q 725 307.1 725.35 307.75 726.5 308.35 728.6 309.75 732.95 312.55 735.65 314 739.6 316.15 743.25 317.25 744.05 317.5 745.8 317.95 747.4 318.4 748.35 318.85 749.5 319.35 751.75 320.5 753.75 321.3 755.35 321"/>

<path id="Layer1_4_1_STROKES" stroke="#33CC99" stroke-width="5" stroke-linejoin="round" stroke-linecap="round" fill="none" d="
M 715.05 287.075
Q 712.9 280.150390625 714.25 271.9 716.45 258.4 726.35 250.1 735.8 242.15 749.35 240.85 762.3 239.6 774.25 244.75 781.8 248.05 787.8 253.25 794.1 258.75 797.75 265.6 801.65 272.85 802.45 280.85 803.2 289.15 800.35 296.5 795.9 308.4 783.35 315.05 771.3 321.45 757.85 320 745.5 318.65 733.8 311 724.82421875 305.07265625 717.45 296.275
M 719.5 295.75
Q 719.249609375 295.412890625 719 295.075"/>

<path id="Layer1_5_1_STROKES" stroke="#33CC99" stroke-width="5" stroke-linejoin="round" stroke-linecap="round" fill="none" d="
M 719.05 295.025
Q 719.148046875 295.18984375 719.25 295.35 722.25 300.25 725.35 304.35"/>

<path id="Layer1_6_1_STROKES" stroke="#33CC99" stroke-width="5" stroke-linejoin="round" stroke-linecap="round" fill="none" d="
M 717.05 294.275
L 716.75 293.25
Q 716.45 292 716.25 291.5
L 715.85 290
Q 715.35 288.5 714.85 287.85 715.2 288.75 715.35 289.5 715.75 290.5 716.35 292.5 716.621484375 293.382421875 717.05 294.275 717.2591796875 294.682421875 717.5 295.1 717.355859375 294.9890625 717.225 294.825
L 717.5 295.75
M 717.225 294.825
Q 716.7390625 294.2673828125 716.35 293.1 715.95 292.3 715.5 290.6 714.85 289.4 714.85 288.35 714.7 288.6 714.85 289 715.05 290.55 715.6 292.1
L 716.35 294.1
Q 717.15 296.05 717.6 296.85 717.85 297.5 718.5 298.6 718.55 298.7 718.65 298.6 718.75 298.5 718.75 298.35 718.75 298.25 718.35 297.85 718.25 297.5 718.25 296.75 718.2 296.45 717.85 295.85 717.55 295.3 717.5 295 717.35 294.6 717.4 293.9 717.4 293.05 717.35 292.75 717.25 292.25 716.75 291.25 716.6 290 716.35 289.35 716.3 289 715.95 287.85 715.65 286.9 715.75 286.35
L 716.5 288.35
Q 717.15 290.65 717.85 292
L 718.5 293.1
Q 718.6 293.35 719.2 294.7 719.6 295.65 720 296.25
M 717.225 294.825
L 717.05 294.275"/>
</defs>

<g transform="matrix( 1, 0, 0, 1, -79.6,0) ">
<use xlink:href="#Layer4_0_FILL"/>
</g>

<g transform="matrix( 1, 0, 0, 1, -359.05,-231.15) ">
<use xlink:href="#Layer4_1_1_STROKES"/>
</g>

<g transform="matrix( 1, 0, 0, 1, -79.6,0) ">
<use xlink:href="#Layer2_0_FILL"/>
</g>

<g transform="matrix( 1, 0, 0, 1, -79.6,0) ">
<use xlink:href="#Layer1_0_FILL"/>
</g>

<g transform="matrix( 0.987060546875, -0.1600341796875, 0.1600341796875, 0.987060546875, -340.8,-233.35) ">
<use xlink:href="#Layer1_1_1_STROKES" transform="matrix( 0.987152099609375, 0.1600494384765625, -0.1600494384765625, 0.987152099609375, 299.05,284.85) "/>
</g>

<g transform="matrix( 0.987060546875, -0.1600341796875, 0.1600341796875, 0.987060546875, -340.8,-233.35) ">
<use xlink:href="#Layer1_2_1_STROKES" transform="matrix( 0.987152099609375, 0.1600494384765625, -0.1600494384765625, 0.987152099609375, 299.05,284.85) "/>
</g>

<g transform="matrix( 1, 0, 0, 1, -359.05,-231.15) ">
<use xlink:href="#Layer1_3_1_STROKES"/>
</g>

<g transform="matrix( 1, 0, 0, 1, -359.05,-231.15) ">
<use xlink:href="#Layer1_4_1_STROKES"/>
</g>

<g transform="matrix( 1, 0, 0, 1, -359.05,-231.15) ">
<use xlink:href="#Layer1_5_1_STROKES"/>
</g>

<g transform="matrix( 1, 0, 0, 1, -359.05,-231.15) ">
<use xlink:href="#Layer1_6_1_STROKES"/>
</g>
</svg>
