
<svg xmlns="http://www.w3.org/2000/svg" version="1.1" xmlns:xlink="http://www.w3.org/1999/xlink" preserveAspectRatio="none" x="0px" y="0px" width="457px" height="348px" viewBox="0 0 457 348">
<defs>
<g id="Layer4_0_FILL">
<path fill="#FF3300" stroke="none" d="
M 511.15 130.2
Q 514.75 129.15 515.3 125.35 515.8 121.55 513.1 118.7 502.85 108.1 490.1 101.2 487 99.5 483.85 98.1 483.95 94.65 483.85 93.05 483.7 89.85 482.9 87.55 482.15 85.3 480.7 83.15 480 82.1 478.85 80.85
L 478.85 80.8
Q 477.5 79.45 476.8 78.75 475.05 77.05 474 76.35 472.05 75.15 470.2 75.2 468.55 75.2 467.9 76.35 467.45 76.75 467.45 78.1
L 467.45 78.15
Q 467.55 80.35 468.2 83.2 468.05 83.1 468 83
L 467.95 82.95
Q 467.05 82 466.15 81.75 465.95 81.7 465.75 81.7 465.35 81.75 465.15 81.75 465.05 81.75 465 81.75 464.95 81.75 464.9 81.7 464.85 81.65 464.75 81.6 464.35 81.1 464.2 80.95
L 464.15 80.9
Q 463.4 80 461.35 79.9 459.8 79.8 459.35 79.6 459 79.4 458.65 79.5 458.25 79.55 458.05 79.9 457.8 80.2 457.85 80.6 458.3 84.25 459.95 87.05 460.2 87.6 460.9 88.55
L 460.9 88.5
Q 461.85 90 462.3 90.5 462.9 91.7 462.95 92.1 462.95 92.45 463.2 92.75 463.45 93.05 463.85 93.1 464.15 93.25 464.6 94.1
L 466 96.45
Q 466.75 97.85 467.7 98.15
L 467.7 98.55
Q 467.7 98.75 467.85 98.95 467.95 99.15 468.15 99.3 469.1 99.9 469.75 100.7 466.25 102.95 463.45 106.1 461.5 108.3 459.7 110.45
L 459.7 110.5
Q 456.2 114.75 454.5 119.95 448.05 116.55 440.3 115.55 432.5 114.55 424 116.1 422.35 116.35 420.8 117.2 405.75 113.15 391.7 107 378 100.85 363.45 96.75 349.4 92.7 335.2 94.8 319.5 97.25 306.4 106.25 293.55 115.05 283.35 126.95 273.4 138.5 264.5 150.75
L 264.5 150.8
Q 255.75 162.8 246.2 174.3 236.8 185.6 224.9 194.3
L 224.85 194.3
Q 212.2 203.6 197.1 207.3 186.2 209.85 175.45 207.65 175.45 207.3 175.3 207.05 175.05 206.7 174.65 206.65 159.2 203.9 146.45 194.45 135.2 186.1 122.65 180.55
L 122.6 180.55
Q 121.9 180.2 121.15 180.6 119.15 181.15 118.6 183.1 118.5 183.4 118.65 183.7 126.65 204.8 147.55 214.2 158 218.95 169.2 220.8 182.9 226.3 197.7 225.65 213.85 224.85 228.95 219.15 243.95 213.6 257.65 205.15 270 197.6 282.35 189.7 294.05 182.1 306.45 175.65 314.4 171.35 322.9 168 326.7 171.55 328.6 176.55 330.4 181.35 329.35 186.35 328.45 190.35 327.1 194.2 318 220.75 309 247.4 308.85 247.75 309.05 248.15 309.2 248.5 309.55 248.65 307.65 255.4 313.3 260.7
L 313.25 260.7
Q 322.75 269.85 331.4 279.65 341.6 291.4 351 303.8 353.05 306.5 355.1 309.3 355.1 309.45 355.2 309.65 355.75 312.25 357.45 314.6 359.9 317.9 363.85 317.1
L 363.8 317.1
Q 365.55 316.9 366.35 315.2 369.2 309.05 365.3 303.3 356.6 290.7 346.75 279 342.3 273.75 337.85 268.7 330.4 260.3 330.85 249.3 339.85 236.2 348.15 222.8 356.45 209.3 364.4 195.7 369.55 186.65 375 177.85 378.95 171.4 380.7 164.3 395.75 170 406.35 171.65 407.25 171.8 408.15 171.95 408.15 172.8 408.15 173.7
L 408.15 173.75
Q 408.35 189.5 401.1 203.65
L 401.15 203.65
Q 399.55 206.65 401.35 209.45 403.75 213.2 407.65 211.2
L 407.7 211.2
Q 418.05 205.6 423.25 194.75 428.2 184.25 431.15 173.05 434.75 172.85 438.4 172.45 455.5 171 466.8 158.5 469.4 155.65 470.55 152.2 473.7 142.75 477.2 133.35 478.15 130.75 479.85 128.55
L 483.1 129.35
Q 484.45 129.8 485.85 130.2
L 485.85 130.25
Q 498.55 133.8 511.15 130.2
M 489 109.15
Q 490.05 108.65 490.9 108.75
L 491 108.75
Q 491.55 108.85 492.7 109.25 492.85 109.35 493 109.45 493.2 109.65 493.25 109.85 493.7 111.2 493.75 111.6 493.85 112.55 493.75 113.15 493.85 114.05 493.55 114.5 493.5 114.55 493.5 114.6 493.4 114.75 493.35 114.85 492.85 115.5 491.65 115.9 491.55 115.9 491.45 115.9 491.15 115.95 490.85 116 490.45 116.05 490.2 115.8 489.45 115.95 489.05 115.7 488.85 115.65 488.75 115.55 488.45 115.25 488.25 115.05
L 488.2 115 487.8 114.75
Q 487.1 114.4 487 113.9 486.8 113.55 486.8 113.1
L 486.8 112.5
Q 486.8 112.45 486.6 111.9 486.4 111 486.75 110.5 486.8 110.45 486.85 110.4 487.15 110 487.95 109.55 488.1 109.45 488.3 109.4 488.4 109.4 489 109.15 Z"/>

<path fill="#000000" stroke="none" d="
M 490.9 108.75
Q 490.05 108.65 489 109.15 488.4 109.4 488.3 109.4 488.1 109.45 487.95 109.55 487.15 110 486.85 110.4 486.8 110.45 486.75 110.5 486.4 111 486.6 111.9 486.8 112.45 486.8 112.5
L 486.8 113.1
Q 486.8 113.55 487 113.9 487.1 114.4 487.8 114.75
L 488.2 115 488.25 115.05
Q 488.45 115.25 488.75 115.55 488.85 115.65 489.05 115.7 489.45 115.95 490.2 115.8 490.45 116.05 490.85 116 491.15 115.95 491.45 115.9 491.55 115.9 491.65 115.9 492.85 115.5 493.35 114.85 493.4 114.75 493.5 114.6 493.5 114.55 493.55 114.5 493.85 114.05 493.75 113.15 493.85 112.55 493.75 111.6 493.7 111.2 493.25 109.85 493.2 109.65 493 109.45 492.85 109.35 492.7 109.25 491.55 108.85 491 108.75
L 490.9 108.75
M 491.65 113.75
Q 491.6 113.75 491.5 113.8 491.3 113.65 491 113.65 491.2 113.35 491.55 113.3 491.65 113.3 491.75 113.35 491.75 113.4 491.85 113.4 491.75 113.55 491.65 113.7
L 491.65 113.75 Z"/>

<path fill="#FFFFFF" stroke="none" d="
M 491.5 113.8
Q 491.6 113.75 491.65 113.75
L 491.65 113.7
Q 491.75 113.55 491.85 113.4 491.75 113.4 491.75 113.35 491.65 113.3 491.55 113.3 491.2 113.35 491 113.65 491.3 113.65 491.5 113.8 Z"/>
</g>

<g id="Layer2_0_FILL">
<path fill="#CCCCCC" stroke="none" d="
M 453.85 121.95
Q 452.45 120.45 451.6 119.15 451.7 118.95 451.75 118.75 451.85 118.3 451.65 118 448.3 112.55 447.15 106.35 447.2 106.15 447.2 105.95
L 447.2 105.9
Q 446.55 105.75 445.6 105.45
L 445 105.35 445 105.45
Q 444.9 105.45 444.75 105.5 443.45 105.75 442.55 106.25 442.05 106.35 440.9 107.1 440.85 107.15 440.85 107.2 440.5 107.45 440.35 107.55 440.25 107.55 440.15 107.65 439 108.4 438.4 109 438.1 109.3 438.1 109.7 438.1 110.1 438.4 110.4 438.7 110.7 439.1 110.7 439.15 110.7 439.2 110.7 445.1 115.15 449.35 122.05 453.25 128.35 455.5 136.25 457.45 142.9 458.55 151.6 459.05 155.7 459.65 163.15 459.45 163.35 459.45 163.7
L 459.45 169.6
Q 459.45 169.75 459.5 169.9 459.4 169.9 459.35 169.95 459.35 171.25 459.3 172 459.35 172.15 459.5 172.3 459.8 172.6 460.2 172.6 460.65 172.6 462.05 172.35 462.1 172.3 462.2 172.3 465.7 171.05 468.25 169.4 469 169.2 469.7 168.4
L 469.75 168.35
Q 469.85 168.25 470.05 168.1
L 470.1 168.1
Q 470.45 168.1 470.75 167.9 471 167.7 471.1 167.35 471.1 167.2 471.15 167.1 471.25 166.95 471.35 166.9 472.25 166.45 473.25 165.25
L 475.2 162.9 475.25 162.85
Q 476.85 161.05 477.8 159.65
L 477.8 159.7
Q 481.05 154.85 481.85 149.5
L 481.85 149.45
Q 482 147.35 481.6 146.05 481.7 146.05 481.85 146.1 481.35 145.25 480.65 143.85 480.55 143.65 480.5 143.45 477.55 142.25 474.8 140.5 474.5 140.25 474.1 140.3 474 140.15 473.85 140.1 470.75 138.3 469.65 137.7
L 469.6 137.45
Q 469.55 137.15 469.35 136.95 469.15 136.7 468.85 136.65 467.05 136.15 465.25 134.65 464.05 133.6 461.95 131.3 457.2 125.95 453.9 121.95
L 453.85 121.95
M 404.6 182.45
Q 402.9 187.05 404.95 189.35 405.65 190.2 407.9 191.35
L 407.95 191.4
Q 413.6 193.8 420.45 194.85 425.8 195.65 427.75 192.95 428.5 192.05 428.7 190.75 429.15 189.15 429.35 187.55
L 429.1 187
Q 428.85 186.15 428.75 185.95
L 427.9 184.4
Q 427.8 184.4 427.75 184.5 427.6 184.65 427.55 184.85 425.6 185.15 423.05 184.95 414.45 184.25 406.3 180.95
L 405.65 181.35
Q 404.9 182 404.4 182.35 404.5 182.35 404.6 182.45 Z"/>
</g>

<g id="Layer1_0_FILL">
<path fill="#33CC99" stroke="none" d="
M 404.1 135.25
Q 404.1 135.55 404.3 135.85 402.85 136.95 401.8 138.55 399.1 142.55 398.1 150.05 396.6 159.7 396.85 169.95
L 396.85 170
Q 396.85 175.65 398.9 178.45
L 398.95 178.5
Q 400.75 180.75 404.8 182.55
L 404.85 182.55
Q 413.6 186.2 422.9 186.95 426.8 187.2 429.5 186.5 432.3 185.7 433.75 183.85
L 433.75 183.8
Q 433.8 183.7 433.9 183.6 440.35 183.5 446.45 181.2 452.55 178.8 457.5 174.6 459.2 173.15 460.75 171.5 460.9 170.95 461.05 170.4
L 461.9 167.75
Q 462 167.45 462.1 167.2
L 462.05 167.2
Q 462 167.2 461.95 167.25
L 461.95 167.15
Q 461.2 156.55 460.55 151.35 459.45 142.5 457.4 135.7
L 457.45 135.7
Q 455.15 127.55 451.05 121 449.15 117.9 446.9 115.25 443.9 111.7 440.3 109.05 439.95 108.8 439.55 108.85 439.3 108.9 439.15 109.05 437.65 106.1 433.7 105.15 431.15 104.5 427.15 104.95
L 427.1 104.95
Q 419.5 105.55 411.85 107.5 408.4 108.35 407.15 109.95
L 407.1 109.95
Q 405.55 111.55 405.2 115.25 404.05 124.2 404.1 132.7 404.05 133.95 404.1 135.25 Z"/>
</g>

<path id="Layer4_1_1_STROKES" stroke="#000000" stroke-width="5" stroke-linejoin="round" stroke-linecap="round" fill="none" d="
M 784.85 343.35
L 785.6 344.1
Q 785.85 344.5 785.6 344.85"/>

<path id="Layer1_1_1_STROKES" stroke="#33CC99" stroke-width="2" stroke-linejoin="round" stroke-linecap="round" fill="none" d="
M 371.205224609375 118.45877304077146
Q 365.643938446045 109.29565811157227 365.8419830322266 97.95243453979492 366.01980819702146 86.70713577270504 371.83207473754885 77.59517822265627 377.7119369506836 68.6503273010253 387.8798706054687 63.909113311767555 398.106876373291 59.12904663085931 408.7279525756836 60.35212936401365 420.4176780700684 61.59166641235356 433.6670547485352 70.60651626586912 445.72428665161135 78.9668144226074 451.132341003418 89.11928710937502 457.3951545715332 100.57134628295898 455.1030220031739 114.39202575683589 452.8598518371583 128.22281494140623 443.1864929199219 136.99698638916016 433.580729675293 145.93826446533205 419.6500289916993 147.14585418701165 405.76829071044926 148.3635536193848 394.6738525390625 141.27409896850588"/>

<path id="Layer1_2_1_STROKES" stroke="#33CC99" stroke-width="2" stroke-linejoin="round" stroke-linecap="round" fill="none" d="
M 369.9752365112305 103.40035095214841
Q 370.0057739257812 95.34078063964841 372.4424064636231 88.23746719360349 375.10839004516606 80.51786193847659 380.23002395629885 75.24519119262698 387.05939788818364 68.12998962402344 397.51535415649414 65.94968872070308 407.588134765625 63.89446945190423 417.41312332153325 66.99517059326172 426.6117103576661 69.91548309326174 434.5592727661133 76.91672210693355 441.8921295166016 83.43368835449212 447.11067886352544 92.52603530883789 453.6975959777833 103.89186553955074 452.4031524658203 113.3751106262207 451.29702835083015 120.95734558105471 444.7737174987793 129.30988922119138 436.41441268920903 139.63163146972659 426.6780242919922 142.77730560302734 417.4243225097656 145.56319580078127 406.43275985717776 142.42582092285159 392.0643775939942 138.335954284668 382.080421447754 126.11555709838865 372.1454277038574 113.90526962280273 370.98303527832036 99.01395416259766"/>

<path id="Layer1_3_1_STROKES" stroke="#33CC99" stroke-width="2" stroke-linejoin="round" stroke-linecap="round" fill="none" d="
M 744 347.85
Q 744.55 350.35 747.75 353.75 751.1 357.75 755.85 363.1 758 365.5 759.25 366.55 761.25 368.25 763.25 368.75
L 763.35 369.5
Q 764.05 369.85 768 372.1
L 767.6 372.5"/>

<path id="Layer1_4_1_STROKES" stroke="#33CC99" stroke-width="5" stroke-linejoin="round" stroke-linecap="round" fill="none" d="
M 746 343
Q 741.4 335.15 742.2 325.4 743 315.95 748.6 308.5 754.05 301.25 762.95 297.35 771.55 293.65 780.85 294.1 789.9 294.6 798.5 298.8 806.85 302.9 813.25 309.75 822.65 319.85 825.2 333.5 827.9 347.8 821.35 359 814.8 370.15 801.15 374.45 787.8 378.6 775.1 374.1 763 369.85 753.95 359.1 745.35 348.9 741.85 335.75"/>

<path id="Layer1_5_1_STROKES" stroke="#33CC99" stroke-width="5" stroke-linejoin="round" stroke-linecap="round" fill="none" d="
M 814.85 310.1
Q 815.7 311.35 817.75 313.45 819.8 315.55 820.6 316.75 821.95 318.6 823.1 322.5 825.9 331.35 826.7 335.9 828.1 343.5 826.75 349.5"/>

<path id="Layer1_6_1_STROKES" stroke="#33CC99" stroke-width="5" stroke-linejoin="round" stroke-linecap="round" fill="none" d="
M 823.85 323
Q 824.95 324.05 825.1 325.25
L 825.35 326.5
Q 825.4 326.7 825.8 327.7 826.1 328.4 826.1 328.85 826.2 329.2 826.1 329.75 826.05 330.35 826.1 330.6 826.1 330.95 826.5 331.95 826.85 332.75 826.6 333.25"/>

<path id="Layer1_7_1_STROKES" stroke="#33CC99" stroke-width="5" stroke-linejoin="round" stroke-linecap="round" fill="none" d="
M 743.25 335.25
L 743.6 331.5
Q 744.35 322.8 745.4 318 747 310.6 750.35 305.5"/>
</defs>

<g transform="matrix( 1, 0, 0, 1, -79.6,0) ">
<use xlink:href="#Layer4_0_FILL"/>
</g>

<g transform="matrix( 1, 0, 0, 1, -374.25,-231.15) ">
<use xlink:href="#Layer4_1_1_STROKES"/>
</g>

<g transform="matrix( 1, 0, 0, 1, -79.6,0) ">
<use xlink:href="#Layer2_0_FILL"/>
</g>

<g transform="matrix( 1, 0, 0, 1, -79.6,0) ">
<use xlink:href="#Layer1_0_FILL"/>
</g>

<g transform="matrix( 0.979248046875, 0.2021942138671875, -0.2021942138671875, 0.979248046875, -179.65,-424.1) ">
<use xlink:href="#Layer1_1_1_STROKES" transform="matrix( 0.97943115234375, -0.2022247314453125, 0.2022247314453125, 0.97943115234375, 261.7,379) "/>
</g>

<g transform="matrix( 0.979248046875, 0.2021942138671875, -0.2021942138671875, 0.979248046875, -179.65,-424.1) ">
<use xlink:href="#Layer1_2_1_STROKES" transform="matrix( 0.97943115234375, -0.2022247314453125, 0.2022247314453125, 0.97943115234375, 261.7,379) "/>
</g>

<g transform="matrix( 1, 0, 0, 1, -374.25,-231.15) ">
<use xlink:href="#Layer1_3_1_STROKES"/>
</g>

<g transform="matrix( 1, 0, 0, 1, -374.25,-231.15) ">
<use xlink:href="#Layer1_4_1_STROKES"/>
</g>

<g transform="matrix( 1, 0, 0, 1, -374.25,-231.15) ">
<use xlink:href="#Layer1_5_1_STROKES"/>
</g>

<g transform="matrix( 1, 0, 0, 1, -374.25,-231.15) ">
<use xlink:href="#Layer1_6_1_STROKES"/>
</g>

<g transform="matrix( 1, 0, 0, 1, -374.25,-231.15) ">
<use xlink:href="#Layer1_7_1_STROKES"/>
</g>
</svg>
