
<svg xmlns="http://www.w3.org/2000/svg" version="1.1" xmlns:xlink="http://www.w3.org/1999/xlink" preserveAspectRatio="none" x="0px" y="0px" width="457px" height="348px" viewBox="0 0 457 348">
<defs>
<g id="Layer4_0_FILL">
<path fill="#FF3300" stroke="none" d="
M 358.5 170.6
Q 358.6 171.15 358.6 171.2
L 358.55 171.8
Q 358.5 172.25 358.65 172.6 358.7 173.1 359.3 173.55
L 359.7 173.85 359.75 173.9
Q 359.9 174.1 360.15 174.45 360.25 174.6 360.45 174.7 360.8 175 361.55 174.95 361.8 175.2 362.2 175.2 362.5 175.2 362.8 175.2 362.9 175.2 363 175.2 364.25 174.95 364.8 174.35 364.9 174.25 365 174.1 365 174.05 365.05 174 365.4 173.6 365.45 172.7 365.6 172.15 365.6 171.2 365.6 170.8 365.35 169.4 365.3 169.2 365.15 169 365 168.85 364.85 168.75 363.8 168.15 363.25 168
L 363.15 168
Q 362.35 167.8 361.2 168.15 360.55 168.35 360.45 168.35 360.25 168.35 360.1 168.45 359.25 168.8 358.9 169.15 358.85 169.2 358.8 169.25 358.4 169.7 358.5 170.6 Z"/>
</g>

<g id="Layer4_1_FILL">
<path fill="#FF3300" stroke="none" d="
M 380.35 380.8
Q 366.5783203125 382.5712890625 353.55 392.6 342.794140625 400.885546875 332.95 414.45 327.179296875 422.479296875 316.5 439.15
L 316.5 439.15
Q 306.790234375 453.6380859375 298.3 461.8 285.1103515625 474.5748046875 267.25 480.95
L 267.25 480.95
Q 249.5091796875 487.329296875 231.2 485.9 224.333203125 485.3431640625 217.7 483.7 206.6810546875 481.0201171875 196.35 475.35 181.3875 467.1689453125 170.9 454.3 170.8814453125 454.242578125 170.8 454.15
L 170.75 454.1
Q 169.7654296875 452.8572265625 168.8 451.55 168.5544921875 451.2140625 168.15 451.15 168.0537109375 451.1373046875 167.95 451.15 166.10078125 449.209375 164.9 448.1
L 164.9 448.1
Q 160.8224609375 444.3623046875 158.9 445.65
L 158.9 445.65
Q 154.5806640625 447.841015625 160.35 459.65 165.3984375 469.984375 171.45 475.6 190.078515625 493.030859375 216.2 500.95 216.9494140625 501.176953125 217.7 501.4 242.13203125 508.48203125 267.75 505.8 292.814453125 503.130859375 317.3 491.4 340.2375 480.47734375 360.3 462.75 363.49453125 464.2482421875 366.95 465.35 373.280078125 467.329296875 374.1 467.65 377.8509765625 469.2119140625 379.7 471.5
L 379.7 471.55
Q 381.5244140625 473.7291015625 382.2 477.2 382.656640625 479.54609375 382.75 483.8
L 385.4 564.3
Q 385.4181640625 564.739453125 385.7 565 385.8501953125 565.1462890625 386 565.2 386.2125 565.500390625 386.55 565.55 435.946875 576.4505859375 476 575.8
L 476 575.8
Q 479.15 575.80234375 480.45 574.9
L 480.4 574.9
Q 483.2669921875 573.204296875 482.5 569.3
L 482.5 569.3
Q 481.8341796875 565.7642578125 478.95 564.25 476.633984375 563.0033203125 473.2 563 471.5029296875 562.991015625 467.5 563.55 452.2369140625 565.5779296875 436.85 562.1 421.5505859375 558.6599609375 408.55 550.3 408.5078125 550.2744140625 408.45 550.25 408.588671875 547.9271484375 408.7 545.6 411.096875 502.11640625 418.25 457.45 418.61875 455.0318359375 418.9 452.95 419.4146484375 453.00546875 420.1 453.1
L 426.45 454 426.4 453.95
Q 429.31796875 454.4650390625 430.65 454.95
L 430.65 454.95
Q 431.930078125 455.4150390625 434.15 456.6 432.96953125 462.9201171875 431.95 466.95 430.3458984375 473.640234375 428.15 478.8 422.8388671875 491.83984375 413.65 498.65 413.4044921875 498.834375 413.3 499.1 413.198046875 499.4095703125 413.25 499.7 413.9126953125 502.251171875 416.55 503.7
L 416.55 503.7
Q 418.9208984375 505.0796875 421.55 504.85
L 421.6 504.85
Q 425.5974609375 504.342578125 430.35 500.75
L 430.3 500.75
Q 448.0908203125 487.994140625 459.35 468.95 465.67890625 471.7869140625 473.15 471.55 481.930859375 471.2447265625 489.4 466.9
L 489.4 466.9
Q 496.5890625 462.6521484375 501.7 455.3 506.529296875 448.3791015625 508.6 439.9
L 508.6 439.85
Q 509.6412109375 435.5744140625 510.2 429.5
L 510.2 429.45
Q 510.6533203125 423.219921875 510.95 419.8 518.9478515625 422.5265625 524.2 423.5 532.989453125 425.071875 539.15 423.25
L 539.1 423.25
Q 543.0705078125 422.3236328125 543.45 419.75 543.559375 419.6669921875 543.6 419.55 543.832421875 419.1814453125 543.7 418.75 541.680859375 411.3326171875 535.55 404.1 531.4326171875 399.208203125 523.4 392.4 520.375 389.7291015625 518.35 388.5 517.963671875 388.2548828125 517.55 388.05 521.412890625 385.8953125 524.2 383.1
L 524.2 383.1
Q 527.4521484375 379.7060546875 528.55 375.1
L 528.55 375.05
Q 529.787109375 370.405859375 528.45 366 528.366796875 365.7091796875 528.1 365.5 527.869140625 365.3224609375 527.55 365.3 527.241015625 365.2818359375 526.95 365.45
L 523.95 367.3
Q 521.4005859375 368.8458984375 520.25 369.75 518.3021484375 371.3904296875 517.1 372.75 516.7671875 369.75625 516.45 368.65
L 516.45 368.7
Q 516.2203125 367.4111328125 514.8 363.7 514.70859375 363.3830078125 514.4 363.2 514.1376953125 363.0197265625 513.8 363.05 513.469140625 363.076953125 513.2 363.3 511.9427734375 364.4720703125 511 366.4 510.5291015625 367.4056640625 509.7 369.7
L 509.7 369.7
Q 508.2611328125 373.5353515625 507.05 377.75 507.0361328125 377.813671875 507 377.85 506.928515625 378.335546875 506.45 379.95
L 506.4 380
Q 506.0705078125 381.3462890625 505.9 382.2
L 505.9 382.25
Q 505.390625 385.6486328125 505.4 387.4 505.4033203125 387.791796875 505.65 388.05 502.7529296875 389.646875 499.75 392.7
L 499.8 392.7
Q 493.12578125 399.3693359375 489.05 408 485.3318359375 415.775390625 484.1 424.2 481.59140625 422.22890625 478.25 420.6 475.1537109375 419.0755859375 469.95 417.35
L 470 417.35
Q 463.385546875 414.911328125 459.65 414.55 453.865234375 413.7111328125 449.2 415.85 431.6564453125 398.3259765625 418.1 390.2 398.490234375 378.444140625 380.35 380.8
M 521.45 399.85
Q 521.6673828125 399.9765625 521.8 400.15 521.93125 400.3328125 521.95 400.55 522.258203125 401.95390625 522.25 402.35 522.2466796875 403.2876953125 522.1 403.85 522.0736328125 404.7302734375 521.7 405.15 521.6720703125 405.205859375 521.65 405.25 521.5693359375 405.38984375 521.45 405.5 520.9046875 406.1125 519.6 406.3 519.5349609375 406.3443359375 519.45 406.35 519.15 406.35 518.85 406.35 518.4583984375 406.3466796875 518.15 406.05 517.4671875 406.1462890625 517.05 405.85 516.8966796875 405.7453125 516.75 405.55 516.54453125 405.2345703125 516.35 405
L 516.35 405 515.9 404.65
Q 515.353125 404.226171875 515.25 403.75 515.1587890625 403.3759765625 515.2 402.95
L 515.25 402.35
Q 515.2361328125 402.31484375 515.15 401.75
L 515.15 401.7
Q 515.0423828125 400.8326171875 515.45 400.4 515.496484375 400.3484375 515.55 400.3 515.8876953125 399.927734375 516.7 399.55 516.90546875 399.4990234375 517.1 399.5 517.2048828125 399.4765625 517.8 399.3
L 517.8 399.25
Q 518.9921875 398.9646484375 519.75 399.1 519.8248046875 399.133984375 519.85 399.15 520.4486328125 399.3095703125 521.45 399.85 Z"/>

<path fill="#000000" stroke="none" d="
M 521.8 400.15
Q 521.6673828125 399.9765625 521.45 399.85 520.4486328125 399.3095703125 519.85 399.15 519.8248046875 399.133984375 519.75 399.1 518.9921875 398.9646484375 517.8 399.25
L 517.8 399.3
Q 517.2048828125 399.4765625 517.1 399.5 516.90546875 399.4990234375 516.7 399.55 515.8876953125 399.927734375 515.55 400.3 515.496484375 400.3484375 515.45 400.4 515.0423828125 400.8326171875 515.15 401.7
L 515.15 401.75
Q 515.2361328125 402.31484375 515.25 402.35
L 515.2 402.95
Q 515.1587890625 403.3759765625 515.25 403.75 515.353125 404.226171875 515.9 404.65
L 516.35 405 516.35 405
Q 516.54453125 405.2345703125 516.75 405.55 516.8966796875 405.7453125 517.05 405.85 517.4671875 406.1462890625 518.15 406.05 518.4583984375 406.3466796875 518.85 406.35 519.15 406.35 519.45 406.35 519.5349609375 406.3443359375 519.6 406.3 520.9046875 406.1125 521.45 405.5 521.5693359375 405.38984375 521.65 405.25 521.6720703125 405.205859375 521.7 405.15 522.0736328125 404.7302734375 522.1 403.85 522.2466796875 403.2876953125 522.25 402.35 522.258203125 401.95390625 521.95 400.55 521.93125 400.3328125 521.8 400.15 Z"/>
</g>

<g id="Layer2_0_FILL">
<path fill="#CCCCCC" stroke="none" d="
M 300.85 244.8
Q 300.5 244.4 300.05 244.05 296 240 290.5 237.55 287.35 236.15 284.1 235.4
L 284.05 235.4
Q 283.5 235.45 283.15 235.4 282.1 234.9 281.55 234.8 281 234.75 280.6 234.7 280.55 234.7 280.5 234.75 280.25 234.8 280.2 234.85 280.15 234.8 279.8 234.7
L 279.8 234.65
Q 279.1 234.4 278.1 234.65
L 278.05 234.65
Q 277.9 234.65 277.75 234.7 276.5 234.75 275.55 235.05 275.55 234.85 275.55 234.65 275.1 234.8 274.75 234.9 274.15 235.1 273.55 235.1 273.55 235.3 273.55 235.55 272 236.55 271.3 238.35 270.55 240.1 271 241.95 271.05 242.25 271.3 242.45 271.55 242.65 271.9 242.7 274.65 242.9 278.95 243.6
L 278.85 243.6
Q 281.95 244.4 282.8 244.75
L 282.85 244.8
Q 284.6 245.5 289.7 248.8 294.15 251.65 297.25 252.2
L 297.3 252.2
Q 299 252.5 300.1 251.8
L 300.15 251.8
Q 301.4 251.1 301.25 248.95
L 301.25 248.9
Q 301.2 248.35 301.15 247.9 301.2 247.85 301.3 247.75 301.35 247.6 301.45 247.55
L 301.9 246.8 300.85 244.75 300.85 244.8
M 339.6 196.3
Q 333.3 191.35 329.3 186.05 328.65 185.2 328.05 184.4 326.4 185.05 325.25 186.05 323.4 187.6 323.35 189.55
L 323.35 189.6
Q 323.2 191.65 325.1 193.5
L 325.15 193.5
Q 325.95 194.25 328.4 195.95 340.85 204 346.4 225.6
L 346.4 225.65
Q 347.2 228.3 347.95 229.65 349.25 232.05 351.25 232.8
L 351.3 232.8
Q 353.5 233.6 356.5 232.3
L 356.45 232.3
Q 362.85 229.8 366.5 223.4 369.65 217.7 369.05 211.7 369.1 211.45 369.1 211.2 369.05 210.95 368.9 210.75 368.8 210.6 368.7 210.55 368.65 210.15 368.6 209.9 368.6 209.85 368.6 209.8 368.55 209.55 368.5 209.35 368.45 209.25 368.45 209.15
L 368.45 208.9
Q 367.45 208.8 366.45 208.65 361.2 207.9 355.35 205.55
L 355.4 205.55
Q 346.95 202.15 339.6 196.3 Z"/>

<path fill="#FFFFFF" stroke="none" d="
M 368.6 209.8
Q 368.6 209.85 368.6 209.9 368.65 210.15 368.7 210.55 368.8 210.6 368.9 210.75 368.85 210.5 368.85 210.3 368.8 209.95 368.6 209.8 Z"/>
</g>

<g id="Layer1_0_FILL">
<path fill="#33CC99" stroke="none" d="
M 324.8 190.8
Q 324.7 190.5 324.45 190.3 315.95 184.15 305.9 182.25 299.95 180.85 295.65 182.25 293.05 183.1 290.5 185 288.75 186.25 286.25 188.75 282.15 192.85 279.75 196 276.5 200.3 275 204.55
L 275.05 204.5
Q 272.95 209.9 272.9 217.15 272.85 221.7 273.85 230 273.85 230.15 273.95 230.3 273.45 233.7 273.6 236.75 273.65 237.15 273.95 237.45 274.2 237.7 274.6 237.7 275 237.7 275.3 237.45 275.85 236.95 276.75 236.8 276.95 236.9 277.25 236.85 277.55 236.8 278.05 236.7 278.15 236.7 278.25 236.7 278.55 236.7 278.85 236.55 279 236.5 279.15 236.55
L 279.1 236.55
Q 280.05 236.9 280.2 236.85 280.35 236.85 280.65 236.8 280.8 236.85 281 236.9 281.3 236.95 281.6 237 282 237.25 282.35 237.2 282.5 237.2 282.6 237.15
L 282.65 237.15
Q 286.25 237.85 289.7 239.4 294.95 241.7 298.75 245.55 298.8 245.6 298.85 245.65 299.3 246 299.5 246.4 299.6 246.55 299.6 246.7 299.4 247.05 299.5 247.45 299.6 247.85 299.95 248.05 300.25 248.25 300.65 248.2 301.05 248.1 301.3 247.75 301.35 247.6 301.45 247.55
L 303.05 245
Q 303.2 244.75 303.2 244.55 303.3 244.4 303.4 244.3 303.5 244.2 303.6 244.1
L 303.95 243.5
Q 304.4 243.05 304.7 242.65 304.9 242.7 305.1 242.7
L 305.55 242.7
Q 305.95 242.85 306.55 243.3
L 306.6 243.3
Q 307.05 243.6 307.55 243.7 307.7 243.85 307.9 243.95 311.1 245.15 314.65 245.85 321.3 247.05 327.9 245.85 334.6 244.55 340.35 240.95 345.9 237.45 349.75 232.3 349.85 232.2 349.95 232.15 350.3 231.9 350.35 231.5 351.25 225.25 347.85 218.4
L 347.85 218.45
Q 346.6 215.8 344.55 212.8 343.5 211.3 340.65 207.6 336.05 201.85 333.05 198.6 328.8 194 324.8 190.8 Z"/>
</g>

<path id="Layer1_1_1_STROKES" stroke="#33CC99" stroke-width="2" stroke-linejoin="round" stroke-linecap="round" fill="none" d="
M 649.25 420
Q 641.95 412.15 639.85 401 637.75 389.95 641.6 379.85 645.55 369.9 654.55 363.2 663.6 356.45 674.25 355.5 685.95 354.35 700.75 360.5 714.25 366.25 721.6 375.1 730.05 385.05 730.6 399.05 731.2 413.05 723.5 423.6 715.9 434.3 702.5 438.3 689.15 442.3 676.85 437.6"/>

<path id="Layer1_2_1_STROKES" stroke="#33CC99" stroke-width="2" stroke-linejoin="round" stroke-linecap="round" fill="none" d="
M 650.1 421.1
Q 655.35 427.4 662.45 431.85 669.5 436.3 677.5 438.35"/>

<path id="Layer1_3_1_STROKES" stroke="#33CC99" stroke-width="2" stroke-linejoin="round" stroke-linecap="round" fill="none" d="
M 645 405.5
Q 643.4 397.6 644.35 390.15 645.4 382.05 649.35 375.85 654.6 367.5 664.4 363.25 673.85 359.2 684.1 360.25 693.7 361.25 702.9 366.5 711.4 371.4 718.35 379.25 727.1 389.05 727.75 398.6 728.2 406.25 723.5 415.75 717.4 427.55 708.5 432.6 700 437.2 688.6 436.35 673.7 435.25 661.45 425.3 649.25 415.35 645.1 401"/>

<path id="Layer1_4_1_STROKES" stroke="#33CC99" stroke-width="5" stroke-linejoin="round" stroke-linecap="round" fill="none" d="
M 485.25 411.35
Q 483.6 410 482.7 407.6 482.1 406.05 481.6 403.1 480.3 393.4 481.35 386.5 482.8 377.65 488.25 371.6"/>

<path id="Layer1_5_1_STROKES" stroke="#33CC99" stroke-width="5" stroke-linejoin="round" stroke-linecap="round" fill="none" d="
M 482.1 390.1
Q 483.15 382.65 487.35 375.25 491.7 367.2 498 364"/>

<path id="Layer1_6_1_STROKES" stroke="#33CC99" stroke-width="5" stroke-linejoin="round" stroke-linecap="round" fill="none" d="
M 497.25 363.65
Q 498.85 361.75 504.5 359.95 509.2 358.5 510.9 358.5
L 513.3 358.9
Q 514.4 358.9 518.65 358.5 528.95 358.5 537.1 361.55 543.2 363.8 553.65 370.35 556.65 372.2 559.3 375.75 560.9 377.85 564.35 382.85 567.95 387.65 567.95 401.9 567.95 417.45 555.05 427.95 543.15 437.65 528 437.65 521.1 437.65 512.95 434.35 504.85 431.1 497.8 425.5 481.4 412.55 481.2 397.3"/>

<path id="Layer1_7_1_STROKES" stroke="#33CC99" stroke-width="5" stroke-linejoin="round" stroke-linecap="round" fill="none" d="
M 484.6 406
Q 485.9 410.45 488.85 415.15 491.65 419.6 496.65 425.4"/>
</defs>

<g transform="matrix( 1, 0, 0, 1, 0,0) ">
<use xlink:href="#Layer4_0_FILL"/>
</g>

<g transform="matrix( 1, 0, 0, 1, -156.65,-231.15) ">
<use xlink:href="#Layer4_1_FILL"/>
</g>

<g transform="matrix( 1, 0, 0, 1, 0,0) ">
<use xlink:href="#Layer2_0_FILL"/>
</g>

<g transform="matrix( 1, 0, 0, 1, 0,0) ">
<use xlink:href="#Layer1_0_FILL"/>
</g>

<g transform="matrix( 1, 0, 0, 1, -316.65,-231.15) ">
<use xlink:href="#Layer1_1_1_STROKES"/>
</g>

<g transform="matrix( 1, 0, 0, 1, -316.65,-231.15) ">
<use xlink:href="#Layer1_2_1_STROKES"/>
</g>

<g transform="matrix( 1, 0, 0, 1, -316.65,-231.15) ">
<use xlink:href="#Layer1_3_1_STROKES"/>
</g>

<g transform="matrix( 1, 0, 0, 1, -156.65,-231.15) ">
<use xlink:href="#Layer1_4_1_STROKES"/>
</g>

<g transform="matrix( 1, 0, 0, 1, -156.65,-231.15) ">
<use xlink:href="#Layer1_5_1_STROKES"/>
</g>

<g transform="matrix( 1, 0, 0, 1, -156.65,-231.15) ">
<use xlink:href="#Layer1_6_1_STROKES"/>
</g>

<g transform="matrix( 1, 0, 0, 1, -156.65,-231.15) ">
<use xlink:href="#Layer1_7_1_STROKES"/>
</g>
</svg>
