
<svg xmlns="http://www.w3.org/2000/svg" version="1.1" xmlns:xlink="http://www.w3.org/1999/xlink" preserveAspectRatio="none" x="0px" y="0px" width="457px" height="348px" viewBox="0 0 457 348">
<defs>
<g id="Layer4_0_FILL">
<path fill="#FF3300" stroke="none" d="
M 433.95 151.2
Q 429.35 153.95 424.55 156.4 418.15 159.65 411.6 162.45 413.9 167.85 415.5 173.6 416.95 178.9 416.5 184.2 415.75 192.7 416.35 201.05 416.4 201.7 416.8 202.35 421.9 203.8 424.85 198.75 430.2 189.6 432.3 179.1 435.1 165.2 433.95 151.2
M 488.65 42.6
Q 488.6 42.5 488.55 42.45 487.85 41.25 486.4 40.3 485.85 40 484 39.05 482.45 38.35 481.05 38.35
L 481 38.35
Q 480.2 38.35 478.4 39.3 477.3 39.85 476.6 39.85 476.2 39.85 475.9 40.1 475.55 40.4 475.55 40.8 475.55 40.95 475.6 41.1 475.15 41.25 474.75 41.75 474.7 41.75 474.7 41.8 474.25 42.45 474 42.75 472.95 43.65 472.65 44.25 472.6 44.35 472.6 44.45 472.45 44.95 472.45 45.85 472.45 46.35 472.4 46.55 472.3 46.7 472.3 46.85 472.25 47.1 472.05 47.45 471.55 48.1 471.4 48.4 471.35 48.45 471.3 48.55 470.75 49.6 470.75 51.95 470.75 53.75 470.4 54.5 470.2 54.9 470.35 55.3 470.4 55.5 470.55 55.65 456.6 62.3 448.75 75.85 447.65 77.75 446.55 79.7 441.3 88.9 436 98.1 436.35 98.15 436.7 98.2 436.35 98.15 436 98.1 435.85 98.35 435.7 98.6 435.85 98.35 436 98.1 431.4 97.3 426.75 97.45 412.45 98.45 401.75 107.45 400.65 108.4 399.55 109.45 400.65 108.4 401.75 107.45 394.55 109.8 385.45 110.55 376.5 111.3 368.7 110.3 353.1 108.4 337.35 107.2 322.45 106.3 308.85 112.2 294.95 118.4 284.3 129.6 273.5 141.1 265.85 154.65 258.3 167.9 251.4 181.65 244.35 195.7 235.75 208.95 228.15 220.65 218.15 230.55 206.85 241.85 193.7 250.9 180.7 259.8 166.4 266.35 161.9 268.4 157.35 270.35 157.55 270.35 157.8 270.35
L 157.1 270.45
Q 155.8 271.05 154.45 271.6 155.8 271.05 157.1 270.45
L 154.7 270.85 157.1 270.45
Q 157.2 270.4 157.35 270.35 142.65 270.2 128.15 272.05 127.2 271.95 126.75 272.9 125.3 276.05 128.55 277.75 143.7 285.75 160.85 282.6 161.75 282.4 162.7 282.2 160.45 282.5 158.2 282.7 160.45 282.5 162.7 282.2 163.6 282.1 164.5 281.95 174.65 280.45 184.55 277.1 197.7 272.55 209.9 265.85 222.3 258.95 233.75 250.55 245.7 241.9 257.1 232.3 267.8 223.15 278.55 214.1 289.5 204.8 301 196 304.3 193.55 307.7 191 308.45 196.8 305.95 202.15 299.4 216.05 290.05 228.05 282.05 238.2 274.3 248.75 270.4 254.05 266.4 259.25 266.25 259.45 266.2 259.7 266.05 259.75 265.95 259.9 264.2 261.8 264.55 264.6 266.1 277.1 267.65 289.65 268.55 296.95 269.6 304.25 270.7 312.35 271.9 320.45 272.95 327.3 274.8 333.9 277.35 343.25 286.75 345.5 293.9 347.05 301 345.85 301.2 345.8 301.4 345.65 301.6 345.5 301.7 345.3 304.15 339.9 300.8 335 299.4 332.85 297.1 331.8 286.9 326.75 286.65 315.05 286.55 309.6 286.5 304.1 286.3 288.45 286.45 272.8 289.6 269.9 292.8 267.15 296.15 264.25 299.5 261.3 308 253.75 316.35 246.05 327.6 235.7 338.55 225.05
L 338.55 225
Q 348.85 214.85 358.05 203.75 366 194.2 367.55 182 367.95 178.45 367.35 175.05 382.3 172.6 396.65 168 404.2 165.5 411.6 162.45 411.35 161.9 411.1 161.35 411.35 161.9 411.6 162.45 418.15 159.65 424.55 156.4 429.35 153.95 433.95 151.2 433.9 150.8 433.85 150.45 433.9 150.8 433.95 151.2 434.2 151 434.5 150.85 448.1 142.55 452.4 127.45 454.15 121.2 454.8 114.5 456 101.85 463.6 91.8 465.4 89.4 470.05 86.35 483.35 93.7 498.2 92.95 500.1 92.65 501.05 91 503.9 85.85 500.65 80.65 495.15 71.7 487.45 64.65 483.05 60.65 478.25 57.1 478.1 57 477.95 56.9 477.15 56.3 476.3 55.9 476.05 55.75 475.8 55.7 475.8 55.65 475.85 55.65 476.35 55.2 476.85 54.9 480.1 52.7 484.05 52.7 485.85 52.7 489.05 53.2
L 498.55 54.7
Q 498.9 54.75 499.25 54.55 499.55 54.35 499.65 54 500 52.9 499.3 51.95 499.3 51.9 499.25 51.85 498.7 50.95 497.7 50.75 497.65 50.5 497.45 50.25 495.7 48.2 493.3 47.4 493.3 47.3 493.3 47.2 493.2 46.8 492.9 46.55 491.65 45.65 490.35 45.1 490.45 44.7 490.45 44.35 490.45 44.15 490.4 44 490.15 43.3 489.4 43.05 489.35 43.05 489.3 43.05 488.95 42.95 488.8 42.9 488.7 42.8 488.65 42.6
M 472.35 55.1
Q 472.35 55.05 472.4 55 472.45 55.05 472.55 55.1 472.4 55.1 472.35 55.1
M 474.3 55.25
Q 473.8 55.15 473.35 55.15 473.8 55.15 474.3 55.25
M 482.4 67.85
L 482.5 67.85
Q 483.05 68 484.1 68.65 484.2 68.75 484.35 68.9 484.5 69.15 484.55 69.35 484.75 70.75 484.7 71.15 484.65 72.1 484.5 72.65 484.4 73.55 484.05 73.85 484 73.9 483.95 73.95 483.85 74.1 483.75 74.2 483.2 74.8 481.9 74.95 481.8 74.95 481.7 74.95 481.4 74.95 481.1 74.95 480.7 74.9 480.5 74.65 479.75 74.65 479.4 74.35 479.2 74.25 479.1 74.1 478.85 73.7 478.75 73.5
L 478.7 73.5 478.3 73.2
Q 477.7 72.7 477.7 72.2 477.55 71.85 477.65 71.4
L 477.7 70.8
Q 477.7 70.75 477.65 70.2 477.6 69.3 478 68.85 478.05 68.8 478.1 68.75 478.5 68.45 479.35 68.15 479.5 68.05 479.7 68.05 479.8 68.05 480.45 67.9 481.6 67.6 482.4 67.85 Z"/>

<path fill="#000000" stroke="none" d="
M 482.5 67.85
L 482.4 67.85
Q 481.6 67.6 480.45 67.9 479.8 68.05 479.7 68.05 479.5 68.05 479.35 68.15 478.5 68.45 478.1 68.75 478.05 68.8 478 68.85 477.6 69.3 477.65 70.2 477.7 70.75 477.7 70.8
L 477.65 71.4
Q 477.55 71.85 477.7 72.2 477.7 72.7 478.3 73.2
L 478.7 73.5 478.75 73.5
Q 478.85 73.7 479.1 74.1 479.2 74.25 479.4 74.35 479.75 74.65 480.5 74.65 480.7 74.9 481.1 74.95 481.4 74.95 481.7 74.95 481.8 74.95 481.9 74.95 483.2 74.8 483.75 74.2 483.85 74.1 483.95 73.95 484 73.9 484.05 73.85 484.4 73.55 484.5 72.65 484.65 72.1 484.7 71.15 484.75 70.75 484.55 69.35 484.5 69.15 484.35 68.9 484.2 68.75 484.1 68.65 483.05 68 482.5 67.85 Z"/>
</g>

<g id="Layer2_0_FILL">
<path fill="#CCCCCC" stroke="none" d="
M 436.6 158.8
L 436.6 158.75
Q 435.7 158.4 434.95 157.6 434.9 157.6 434.9 157.65 434.7 157.7 434.55 157.85 434.3 158.1 434.25 158.4 433.55 158.95 432.55 159.45
L 432.5 159.45
Q 424.65 163.5 420.35 165.15 414.9 167.15 410.1 167.75 410 168.05 409.75 168.45
L 409.45 169.85
Q 409.55 169.8 409.7 169.8 409.8 171.45 410.9 172.95
L 410.9 172.9
Q 412.1 174.75 414.15 175.4 416.1 176.1 418.65 175.55 420.1 175.15 422.7 174.05
L 427.95 171.8
Q 430.65 170.65 432 169.8
L 431.95 169.85
Q 434.25 168.5 435.5 167 437.15 165 437.35 162.5 437.55 160.4 436.6 158.8
M 434.95 90.4
Q 434.3 89.15 434.15 88.95
L 433.45 88
Q 433.15 87.65 432.95 87.3 431.9 88.15 430.85 88.35 430.6 88.4 430.4 88.45 430.05 88.9 429.8 89.6
L 429.8 89.55
Q 429.15 91.05 428.8 91.8
L 427.8 93.95
Q 427.65 94.3 427.8 94.7 427.9 95.1 428.3 95.25 428.65 95.4 429.05 95.3 429.1 95.25 429.2 95.25 429.25 95.3 429.35 95.4 435.35 99.75 442.25 106.4
L 442.25 106.45
Q 447.25 111.7 450.4 116.4
L 450.35 116.4
Q 456.15 125.85 457 136.95 456.9 137 456.75 137.05 456.65 137.1 456.6 137.15 456.75 137.65 456.75 138.25 456.75 138.55 456.75 138.85 456.8 138.85 456.9 138.9
L 457 138.95
Q 456.9 139.2 457 139.45 457.15 139.85 457.55 140 457.9 140.2 458.3 140.05 460.35 139.3 462.3 137.75
L 462.35 137.75
Q 463.4 136.9 465.05 135.2 465.1 135.2 465.15 135.2 465.55 135.15 465.8 134.9 466.05 134.6 466.05 134.2
L 466.05 134.15
Q 466.3 133.9 466.55 133.65
L 466.6 133.6
Q 466.65 133.5 466.7 133.45 466.75 133.4 466.8 133.4 467.05 133.3 467.25 133.1 468.25 131.8 469.45 130 469.75 129.55 469.95 129.2 469.95 129.15 470 129.1 470.25 128.6 470.6 128.1
L 470.6 128.05
Q 472.25 124.65 472.55 122.25
L 472.55 122.3
Q 472.8 121.05 472.85 119.3
L 472.85 119.25
Q 472.8 117.35 472.8 116.35 472.8 116.15 472.7 115.95 472.9 115.95 473.1 116 473.05 115.65 472.95 115.4 472.55 114.45 472.5 113.95 465.65 113.2 459.45 110 459.25 109.8 458.95 109.75 458.9 109.7 458.85 109.7 458.65 109.6 458.45 109.6 453.8 108.3 450.3 104.65 450.25 104.6 450.2 104.6 443.4 98.85 436.75 92.25 436.25 92.05 435.85 91.7 435.4 91.3 434.95 90.4 Z"/>
</g>

<g id="Layer1_0_FILL">
<path fill="#33CC99" stroke="none" d="
M 431.2 94.3
Q 430.3 94.5 429.05 94.45 427.85 94.35 427 94.05 422.95 94.3 418.8 95.4 414.4 96.55 406.55 100.3 402.05 102.4 399.45 104.75 399.3 104.95 399.1 105.1 399.05 105.15 398.95 105.2 398.75 105.4 398.55 105.65 398.45 105.6 398.4 105.6 398 105.85 397.8 106.05
L 396.55 107.3
Q 396.2 107.65 395.7 108.05 395.5 108.45 395.3 108.95 394.3 111.05 393.55 113.1
L 393.5 113.1
Q 392.1 116.85 391.8 119.3 391.45 120.75 391.45 122.55
L 391.45 122.6
Q 391.25 125.55 391.7 129.6 391.8 131.05 392.1 133.75 389.6 138.15 389.95 142.45 390.25 145.45 392.55 150.3
L 392.55 150.25
Q 395.3 156.4 400.35 165.85
L 400.3 165.8
Q 401.4 167.95 402.7 168.75 402.75 168.8 402.8 168.8 403.75 169.55 405.2 169.85 405.25 169.85 405.3 169.85 406.05 169.95 407.7 169.95
L 407.75 169.95
Q 413.9 169.7 421.05 167 425.45 165.3 433.4 161.25 435.9 160.1 436.7 158.6 436.8 158.4 436.95 158.15 442.5 155.9 445.35 154.45 450.2 151.8 453.05 148.5
L 453.05 148.55
Q 454.7 146.7 456.35 143.7 457.85 140.95 458.9 138 459 137.75 459.05 137.55 459.1 137.35 459.2 137.15 459.15 136.7 459.2 136.3 459.1 135.9 459.05 135.65
L 458.8 134.75
Q 458.65 134.25 458.65 132.95 458.6 132.95 458.6 133 457.1 123.55 452.05 115.35
L 452.05 115.3
Q 448.85 110.45 443.7 105
L 443.65 105
Q 437 98.6 431.2 94.3 Z"/>
</g>

<path id="Layer4_0_1_STROKES" stroke="#FF3300" stroke-width="2" stroke-linejoin="round" stroke-linecap="round" fill="none" d="
M 470.55 55.65
Q 456.6 62.3 448.75 75.85 447.65 77.75 446.55 79.7 441.3 88.9 436 98.1 436.35 98.15 436.7 98.2
M 433.95 151.2
Q 434.2 151 434.5 150.85 448.1 142.55 452.4 127.45 454.15 121.2 454.8 114.5 456 101.85 463.6 91.8 465.4 89.4 470.05 86.35 483.35 93.7 498.2 92.95 500.1 92.65 501.05 91 503.9 85.85 500.65 80.65 495.15 71.7 487.45 64.65 483.05 60.65 478.25 57.1 478.1 57 477.95 56.9 477.15 56.3 476.3 55.9 476.05 55.75 475.8 55.7
M 307.7 191
Q 304.3 193.55 301 196 289.5 204.8 278.55 214.1 267.8 223.15 257.1 232.3 245.7 241.9 233.75 250.55 222.3 258.95 209.9 265.85 197.7 272.55 184.55 277.1 174.65 280.45 164.5 281.95 163.6 282.1 162.7 282.2 161.75 282.4 160.85 282.6 143.7 285.75 128.55 277.75 125.3 276.05 126.75 272.9 127.2 271.95 128.15 272.05 142.65 270.2 157.35 270.35 161.9 268.4 166.4 266.35 180.7 259.8 193.7 250.9 206.85 241.85 218.15 230.55 228.15 220.65 235.75 208.95 244.35 195.7 251.4 181.65 258.3 167.9 265.85 154.65 273.5 141.1 284.3 129.6 294.95 118.4 308.85 112.2 322.45 106.3 337.35 107.2 353.1 108.4 368.7 110.3 376.5 111.3 385.45 110.55 394.55 109.8 401.75 107.45 412.45 98.45 426.75 97.45 431.4 97.3 436 98.1 435.85 98.35 435.7 98.6
M 472.55 55.1
Q 472.4 55.1 472.35 55.1
M 474.3 55.25
Q 473.8 55.15 473.35 55.15
M 399.55 109.45
Q 400.65 108.4 401.75 107.45
M 367.35 175.05
Q 382.3 172.6 396.65 168 404.2 165.5 411.6 162.45 411.35 161.9 411.1 161.35
M 411.6 162.45
Q 418.15 159.65 424.55 156.4 429.35 153.95 433.95 151.2 433.9 150.8 433.85 150.45
M 411.6 162.45
Q 413.9 167.85 415.5 173.6 416.95 178.9 416.5 184.2 415.75 192.7 416.35 201.05 416.4 201.7 416.8 202.35 421.9 203.8 424.85 198.75 430.2 189.6 432.3 179.1 435.1 165.2 433.95 151.2
M 157.8 270.35
Q 157.55 270.35 157.35 270.35 157.2 270.4 157.1 270.45
L 157.8 270.35 Z
M 154.45 271.6
Q 155.8 271.05 157.1 270.45
L 154.7 270.85
M 158.2 282.7
Q 160.45 282.5 162.7 282.2"/>

<path id="Layer1_1_1_STROKES" stroke="#33CC99" stroke-width="2" stroke-linejoin="round" stroke-linecap="round" fill="none" d="
M 353.65272216796876 89.60276489257814
Q 347.40524291992193 80.89192504882811 346.73360595703133 69.56592407226566 346.04931030273434 58.3391174316406 351.14682006835943 48.807849121093795 356.3245361328125 39.438031005859386 366.1001586914062 33.931292724609364 375.9317077636719 28.38128662109375 386.616162109375 28.787091064453136 398.3674743652344 29.127423095703136 412.2697265625 37.101361083984386 424.93308715820314 44.513958740234386 431.1035766601563 54.223071289062545 438.22595825195316 65.16256713867193 436.9993103027345 79.11939697265632 435.82225952148445 93.08255615234378 426.8488037109375 102.57283935546877 417.95555419921874 112.22457275390633 404.1571655273438 114.49608154296885 390.4083740234375 116.77391967773445 378.8024291992188 110.55476684570311"/>

<path id="Layer1_2_1_STROKES" stroke="#33CC99" stroke-width="2" stroke-linejoin="round" stroke-linecap="round" fill="none" d="
M 351.27247314453126 74.68159179687501
Q 350.6854003906249 66.6427001953125 352.570819091797 59.37297973632815 354.63771362304686 51.47115478515627 359.3407287597657 45.82112426757817 365.60543212890633 38.202978515625034 375.8644714355468 35.22777099609374 385.7510131835938 32.406646728515625 395.78551635742195 34.745703125000034 405.1815856933594 36.952880859375 413.6428833007812 43.32518310546874 421.45412597656247 49.26169433593748 427.3544250488282 57.92822875976566 434.793377685547 68.75690917968757 434.22923583984374 78.3122497558594 433.7072204589844 85.95758056640625 427.84251098632814 94.78608398437501 420.2979309082031 105.71883544921883 410.83037109375 109.60152587890622 401.81655273437497 113.08847656249992 390.6159973144532 110.80223388671874 375.9752868652344 107.82495117187506 365.0835205078126 96.40442504882816 354.24135131835936 84.9902282714844 351.9413085937501 70.23050537109378"/>

<path id="Layer1_3_1_STROKES" stroke="#33CC99" stroke-width="2" stroke-linejoin="round" stroke-linecap="round" fill="none" d="
M 606.35 319.35
Q 606.35 321.35 608.85 323.85 615.65 330.65 622.6 336.5 626.5 340.55 631.75 341.85"/>

<path id="Layer1_4_1_STROKES" stroke="#33CC99" stroke-width="5" stroke-linejoin="round" stroke-linecap="round" fill="none" d="
M 606.35 316.825
Q 603.9912109375 311.3130859375 603.15 307.75 602.2 303.7 602.2 298.1 602.2 283.7 612.7 273.2 622.95 262.9 636.35 262.9 636.85 262.9 638.8 263.05 641.05 263.15 642.2 263.3"/>

<path id="Layer1_5_1_STROKES" stroke="#33CC99" stroke-width="5" stroke-linejoin="round" stroke-linecap="round" fill="none" d="
M 642 262.1
L 643 262.1
Q 657.85 262.7 672.75 276.45 687.95 290.5 687.95 304.75 687.95 322.45 676.05 333.55 664.8 344.05 648.35 344.05 633.35 344.05 622.25 333.7 618.2 330 613.2 323.55 607.7 316.05 604.8 312.4"/>

<path id="Layer1_6_1_STROKES" stroke="#33CC99" stroke-width="5" stroke-linejoin="round" stroke-linecap="round" fill="none" d="
M 612.7 325.85
Q 607.35 319.9 605.15 312.5 603.2 306.1 603.2 297.1 603.2 294.5 603.6 291.25 604.25 287.1 604.6 284.25"/>
</defs>

<g transform="matrix( 1, 0, 0, 1, -79.6,0) ">
<use xlink:href="#Layer4_0_FILL"/>

<use xlink:href="#Layer4_0_1_STROKES"/>
</g>

<g transform="matrix( 1, 0, 0, 1, -79.6,0) ">
<use xlink:href="#Layer2_0_FILL"/>
</g>

<g transform="matrix( 1, 0, 0, 1, -79.6,0) ">
<use xlink:href="#Layer1_0_FILL"/>
</g>

<g transform="matrix( 0.991943359375, 0.1265869140625, -0.1265869140625, 0.991943359375, -237.2,-409.2) ">
<use xlink:href="#Layer1_1_1_STROKES" transform="matrix( 0.9919586181640625, -0.1265869140625, 0.1265869140625, 0.9919586181640625, 287.05,375.85) "/>
</g>

<g transform="matrix( 0.991943359375, 0.1265869140625, -0.1265869140625, 0.991943359375, -237.2,-409.2) ">
<use xlink:href="#Layer1_2_1_STROKES" transform="matrix( 0.9919586181640625, -0.1265869140625, 0.1265869140625, 0.9919586181640625, 287.05,375.85) "/>
</g>

<g transform="matrix( 1, 0, 0, 1, -252.65,-231.15) ">
<use xlink:href="#Layer1_3_1_STROKES"/>
</g>

<g transform="matrix( 1, 0, 0, 1, -252.65,-231.15) ">
<use xlink:href="#Layer1_4_1_STROKES"/>
</g>

<g transform="matrix( 1, 0, 0, 1, -252.65,-231.15) ">
<use xlink:href="#Layer1_5_1_STROKES"/>
</g>

<g transform="matrix( 1, 0, 0, 1, -252.65,-231.15) ">
<use xlink:href="#Layer1_6_1_STROKES"/>
</g>
</svg>
