
<svg xmlns="http://www.w3.org/2000/svg" version="1.1" xmlns:xlink="http://www.w3.org/1999/xlink" preserveAspectRatio="none" x="0px" y="0px" width="457px" height="348px" viewBox="0 0 457 348">
<defs>
<g id="Layer4_0_FILL">
<path fill="#FF3300" stroke="none" d="
M 497.85 11.35
Q 497.35 10.4 496.55 10.25
L 496.5 10.25
Q 495.75 10 494.35 10.7 494.3 10.75 494.25 10.8 491.15 12.85 489.5 14.75 489.5 14.8 489.45 14.8 487.85 16.4 486.2 18.6 485.9 17.95 485.8 17.4
L 485.8 17.35
Q 485.95 15.3 485.5 14.3 485.35 13.9 484.8 13.25 484.5 12.8 484.4 12.55
L 484.4 12.7
Q 484.15 11.75 483.85 11.25 483.75 11 482.65 9.9 482.5 9.75 482.4 9.75 482.55 9.45 482.55 9.15 482.55 8.8 482.3 8.55 482.05 8.3 481.75 8.25 480.35 7.95 479.25 9.05
L 479.2 9.05
Q 478.35 9.85 478 11.2
L 478 11.15
Q 477.8 11.85 477.6 13.2 477.4 14.3 477.25 14.85 476.15 17.4 476.1 17.55
L 476.1 17.6
Q 475.8 18.6 475.9 20.6 475.95 22.15 475.75 22.95 475.65 23.35 475.05 24.85 475 24.85 475 24.9 474.35 27.05 474.7 28.9 474.35 29.15 474.3 29.55 474.15 30.65 474.3 31.75 474.35 31.85 474.4 32 474.45 32.15 474.55 32.45 471.6 34.1 469.4 37.7 461.2 50.8 457.9 65.9 455.95 74.55 455.05 83.6 451 81.55 446.75 80 439.65 77.6 432.6 79.35
L 432.55 79.35
Q 425.15 81.3 418.8 85 418.5 85.15 418.4 85.5
L 418.05 86.35 417.3 86.7
Q 417.15 86.75 417.05 86.85 402.2 83.65 386.85 83.75 373.35 83.85 360.15 86.7 346.45 89.55 333.35 94.75 320.25 100.05 308.45 107.45 294.6 115.9 283.3 127.5 272.05 138.95 263.85 152.5 256.2 165.1 250.4 178.45 244.05 192.85 238.25 207.4 232.4 221.85 225.9 235.95 220.6 247.45 210.75 255.4 201.95 262.4 191.1 260.1 188 259.55 185.65 257.8 185.4 257.6 185.1 257.6
L 185.1 257.55
Q 184.8 257.25 184.4 257.2 179.4 256.8 175.55 253.25
L 175.55 253.2
Q 172.5 250.5 168.65 249 164.8 247.4 160.7 246.75 160.4 246.65 160.15 246.8 159.85 246.9 159.7 247.2 159.55 247.45 159.55 247.75 160 258.05 168.8 264.25
L 168.8 264.2
Q 175.2 268.85 182.8 271.7 195.1 276.4 207.7 272.7 206.85 273.85 206.05 275 205.8 274.9 205.5 275 205.1 275.1 204.95 275.5 201.05 282.8 199.35 290.9 198.9 293.1 198 295.4 195.95 300.35 198.15 304.95 199.8 308.3 203.4 308.3 207.55 308.3 209.55 304.4 214.45 295 217.65 284.9 217.7 284.75 217.7 284.6 220.05 280.7 222.5 276.85 230.6 264.25 241.6 254 252.1 244.1 264.05 235.85 275.1 228.25 286.8 221.6 299.85 214.3 312.85 207.25 325.95 200 338.7 192.35 348.05 186.65 355.9 179.05 366.6 168.7 368.35 154.2 374.75 150.3 382.25 147.65 390.05 144.95 397.7 144.15 411.85 142.65 426.1 141.35 428.5 141.1 430.9 140.75 432.1 141.65 433.35 142.6 438.2 146.25 443.1 150 443.25 150.1 443.45 150.2 449.15 155.6 445.4 162.8
L 445.45 162.8
Q 444.5 164.45 445.05 166.15 445.7 168.1 446.95 168.65 448.2 169.35 450.05 168.6 453.15 167.2 455.6 164.75
L 455.6 164.8
Q 460.2 160.3 461 154.25 461.9 147.6 457.75 142.6
L 457.75 142.65
Q 454.5 138.7 451.45 134.65 453.95 133.5 456.45 132.25
L 456.4 132.25
Q 471.85 124.3 476.2 107.5 479.35 95.1 480.5 82.05 481.25 73.2 484.15 64.9 493.35 68.05 503.35 66.7
L 503.4 66.7
Q 505.85 66.45 508.4 66.2 514.8 66.15 515.9 60.25 516.2 58.6 515.4 57.1
L 515.4 57.05
Q 507.5 43.4 494.15 34.7
L 494.15 34.75
Q 491.5 32.95 488.55 31.9 489.95 31.1 491.05 30.25 493.55 28.4 496.6 24.6
L 496.6 24.55
Q 498.2 22.4 498.5 21.2 498.95 19.9 498.95 17.2 498.95 17.15 498.95 17.1 498.75 14.8 498.2 12.5
L 498.2 12.45
Q 497.95 11.65 497.9 11.5 497.9 11.4 497.85 11.35
M 488.9 43.8
Q 490 43.35 490.85 43.5
L 490.95 43.5
Q 491.45 43.6 492.55 44.1 492.7 44.2 492.85 44.3 493.05 44.5 493.1 44.7 493.45 46.1 493.5 46.5 493.6 47.45 493.45 48 493.5 48.9 493.2 49.35 493.15 49.4 493.15 49.45 493.05 49.6 492.95 49.7 492.45 50.35 491.3 50.7 491.2 50.7 491.1 50.7 490.8 50.75 490.5 50.75 490.1 50.8 489.8 50.55 489.05 50.7 488.7 50.4 488.5 50.35 488.35 50.2 488.1 49.85 487.9 49.65
L 487.85 49.6 487.45 49.35
Q 486.8 48.95 486.7 48.45 486.55 48.1 486.55 47.65
L 486.55 47.05
Q 486.55 47 486.4 46.45 486.25 45.6 486.6 45.1 486.65 45.05 486.7 45 487 44.6 487.8 44.2 487.95 44.1 488.15 44.05 488.25 44.05 488.9 43.8 Z"/>

<path fill="#000000" stroke="none" d="
M 490.85 43.5
Q 490 43.35 488.9 43.8 488.25 44.05 488.15 44.05 487.95 44.1 487.8 44.2 487 44.6 486.7 45 486.65 45.05 486.6 45.1 486.25 45.6 486.4 46.45 486.55 47 486.55 47.05
L 486.55 47.65
Q 486.55 48.1 486.7 48.45 486.8 48.95 487.45 49.35
L 487.85 49.6 487.9 49.65
Q 488.1 49.85 488.35 50.2 488.5 50.35 488.7 50.4 489.05 50.7 489.8 50.55 490.1 50.8 490.5 50.75 490.8 50.75 491.1 50.7 491.2 50.7 491.3 50.7 492.45 50.35 492.95 49.7 493.05 49.6 493.15 49.45 493.15 49.4 493.2 49.35 493.5 48.9 493.45 48 493.6 47.45 493.5 46.5 493.45 46.1 493.1 44.7 493.05 44.5 492.85 44.3 492.7 44.2 492.55 44.1 491.45 43.6 490.95 43.5
L 490.85 43.5 Z"/>
</g>

<g id="Layer2_0_FILL">
<path fill="#CCCCCC" stroke="none" d="
M 450.75 135.35
Q 450.7 135.45 450.7 135.6 449.65 137.3 447.35 139.2
L 447.35 139.15
Q 445.15 140.85 442.1 142.6 440.35 143.5 436.35 145.45 435.5 145.9 434.75 146.2 434.85 146.5 434.9 146.9 435 147.35 435.15 148.2 435.25 148.15 435.4 148.1 435.45 148.15 435.55 148.2 436.85 149 438.7 150.5 438.75 150.55 438.85 150.6 439.2 150.8 439.95 151.2
L 439.95 151.25
Q 440.85 151.7 441.55 151.85 441.6 151.85 441.7 151.85 441.85 151.85 443.6 151.6 443.65 151.6 443.7 151.6 446.35 150.9 449.25 148.95 450.75 147.85 453.9 145.25
L 453.95 145.25
Q 455.9 143.75 456.6 142.3 456.6 142.25 456.65 142.25 457.25 140.85 457.1 139.75
L 457.55 139.6
Q 457.45 139.4 457.4 139.2 457.15 138.25 457.1 138.2
L 456.9 137.65 456.4 137.85
Q 456.35 137.75 456.3 137.65 456.15 137.45 455.95 137.35 455.85 137.25 455.75 137.25 455.7 137.05 455.7 136.95 455.6 136.65 455.35 136.45 455.1 136.25 454.95 136.1 454.95 135.95 454.95 135.85 454.95 135.5 454.75 135.25 454.55 135 454.25 134.9 454.2 134.9 454.15 134.9 454.1 134.65 454 134.5 453.85 133.9 453.5 133.5
L 453.2 133.55
Q 452.75 133.75 451.85 134.4 451.3 134.8 450.85 135 450.75 135.15 450.75 135.35
M 494.2 98.1
Q 495.95 91.35 495.2 85.85 495.2 85.75 495.2 85.7 495.3 85.7 495.4 85.7
L 495.4 85.65 495.3 84.25
Q 495.2 83.95 495.1 83.7 490.3 83.65 485.55 82.3 485.15 82.2 484.8 82.35 484.55 82.45 484.45 82.65 484.35 82.65 484.3 82.65 484.1 82.6 483.9 82.6
L 483.85 82.55
Q 481.2 82.15 479.85 81.9 477.05 81.25 475 80.3 474.95 80.3 474.9 80.3 474.15 80 471.75 78.5
L 471.7 78.5 464.9 74.55
Q 459.9 70.35 457.3 68 457.2 67.7 457 67.5 456.85 67.35 456.65 67.25
L 456.6 67.25
Q 456.05 67.45 455.95 67.5 455.2 67.7 454.15 67.65 454.25 67.75 454.35 67.85 453.8 68.2 453.2 68.7 453.15 68.7 453.1 68.75 451.85 69.95 451.6 70.4 450.9 71.15 450.45 72.4
L 449.35 74.5
Q 449.3 74.55 449.3 74.6 448.95 75.35 448.85 75.6 448.8 75.65 448.8 75.75 448.15 77.15 448.2 77.95 448.2 78.35 448.5 78.65 448.7 78.85 449 78.95 449 79.05 449.05 79.15 449.25 79.5 449.65 79.65 449.9 79.75 450.15 79.7 460.5 85.3 468.75 93.8 477.25 102.65 482.55 113.55 482.75 113.9 483.15 114.05 483.5 114.2 483.9 114
L 483.95 113.95
Q 484.15 113.95 484.3 113.9 484.7 113.75 484.85 113.4 485.5 112 486.8 111 486.9 110.9 487 110.85 488.85 108.45 489.65 107.25
L 489.6 107.3
Q 491.9 104.1 492.35 103.35
L 492.35 103.3
Q 493.5 100.95 494.2 98.1 Z"/>
</g>

<g id="Layer1_0_FILL">
<path fill="#33CC99" stroke="none" d="
M 412.95 85.75
Q 411.9 88.4 411.3 91.1
L 411.3 91.05
Q 410.9 91.8 410.85 93.35 410.05 97.85 410.45 102.55 410.45 102.65 410.5 102.8
L 410.45 104.05
Q 410.45 104.25 410.5 104.45 409.9 105.1 409.5 105.95 408.7 106.35 407.95 107.2 407.05 108.2 405.55 110.25
L 405.5 110.25
Q 403.55 112.6 402.6 114.6 401.55 116.1 401.45 117.35 401.45 117.4 401.45 117.45 401.45 119 401.85 120.2 402.45 122.75 404.3 126.4 404.45 126.7 404.7 126.85 404.75 127.1 404.9 127.3 413.4 138.75 425.15 146.7 428.4 148.85 430.6 149.1
L 430.65 149.1
Q 433.25 149.25 437.25 147.25 441.25 145.3 443.05 144.35 446.25 142.55 448.6 140.75 451.45 138.4 452.6 136.35 452.7 136.4 452.8 136.45 452.85 136.5 452.9 136.55 453 136.8 453.25 137.15 453.3 137.25 453.35 137.3 453.55 137.5 453.8 137.7 453.8 137.8 453.8 137.95
L 453.85 138
Q 453.95 138.9 454.55 139.1 454.6 139.95 456.05 139.95 456.15 139.95 456.25 139.95
L 456.75 139.85
Q 456.8 139.8 456.9 139.8
L 457.9 139.5
Q 463.35 138.8 468 135.8
L 467.95 135.85
Q 469.1 135.2 470.55 134.05
L 470.6 134.05
Q 471.4 133.4 472.95 132.15 475.95 129.6 477.6 127.9 480 125.4 481.45 122.95
L 481.4 122.95
Q 483.45 119.5 484.15 114.5 484.2 114.25 484.25 113.95 483.95 113.5 483.85 113.15 483.7 112.25 483.55 111.75
L 483 110.35
Q 482.9 110.1 482.9 109.85 477.8 100.3 470.2 92.4 461.45 83.4 450.45 77.6 450.05 77.4 449.65 77.5 447.55 76.4 444.2 75.85
L 444.3 75.9
Q 438.9 74.65 435.15 74.85 429.35 75.25 424.15 77.8 418.6 80.4 414.5 84.1 414.4 84.1 414.35 84.1 414.05 84.4 413.95 84.55
L 413.3 85.4
Q 413.15 85.55 412.95 85.75
M 451.3 134.3
L 451.4 134.2
Q 451.4 134.3 451.45 134.4 451.35078125 134.2513671875 451.3 134.3 Z"/>
</g>

<path id="Layer1_1_1_STROKES" stroke="#33CC99" stroke-width="2" stroke-linejoin="round" stroke-linecap="round" fill="none" d="
M 376.59344787597655 68.20234832763674
Q 368.6168289184571 61.04142303466796 365.521957397461 50.126011657714855 362.4360855102539 39.31019134521483 365.3613784790039 28.905007934570335 368.39976196289064 18.64021148681644 376.7599822998047 11.157643127441418 385.16549835205086 3.6207794189452898 395.6864501953125 1.7162033081054915 407.2351089477539 -0.4820510864257699 422.52806396484374 4.310853576660179 436.4903366088867 8.822389221191429 444.60674743652345 16.974725341796898 453.91765594482416 26.12356719970711 455.7253555297852 40.01681823730473 457.58285064697264 53.90556945800785 450.86380004882807 65.10539855957035 444.2578399658202 76.4456146240235 431.272622680664 81.63520812988287 418.3372009277343 86.82030181884772 405.6645172119141 83.24647674560549"/>

<path id="Layer1_2_1_STROKES" stroke="#33CC99" stroke-width="2" stroke-linejoin="round" stroke-linecap="round" fill="none" d="
M 371.0558807373047 54.14412841796877
Q 368.7514526367186 46.42042846679692 369.0270950317384 38.91539764404297 369.34383087158193 30.754025268554756 372.7197006225586 24.22389373779299 377.196762084961 15.435559082031261 386.57420196533195 10.320974731445347 395.6210723876954 5.437071228027321 405.92365264892584 5.560314941406261 415.5743911743164 5.6922607421875 425.2092498779296 10.092825317382847 434.11547241210934 14.207818603515648 441.743522644043 21.400242614746105 451.33970489501957 30.37269897460942 452.84651184082026 39.82514801025394 453.98314361572267 47.40336608886719 450.1573287963867 57.28750000000002 445.14423065185537 69.58822326660163 436.73510742187494 75.41853942871097 428.68385009765626 80.76469726562499 417.253971862793 80.94413146972659 402.31590728759767 81.1895751953125 389.2205383300781 72.38271942138675 376.1749649047851 63.57136383056644 370.75048828125006 49.653530883789074"/>

<path id="Layer1_3_1_STROKES" stroke="#33CC99" stroke-width="2" stroke-linejoin="round" stroke-linecap="round" fill="none" d="
M 717.35 299.6
Q 720 302 725.35 306.5
L 732.25 310.5
Q 734.8 312.05 735.6 312.35 737.75 313.35 740.65 314 742.074609375 314.2931640625 744.75 314.7 744.9986328125 314.7375 745.25 314.775 745.5462890625 314.806640625 745.85 314.85"/>

<path id="Layer1_4_1_STROKES" stroke="#33CC99" stroke-width="5" stroke-linejoin="round" stroke-linecap="round" fill="none" d="
M 708.6 282.65
Q 708.3783203125 282.1162109375 708.175 281.575 706.6337890625 277.5501953125 706.2 272.9 705.35 263.5 709.35 255.25 713.35 247.2 721.05 241.65 728.55 236.25 737.6 234.6 746.35 232.95 755.65 235 764.4 236.95 772.35 241.85 779.45 246.3 784.55 252.4 789.9 258.85 792.35 266.35 794.95 274.1 793.95 282.25 792.95 290.65 788.35 297 782.1 306 770.35 310.1 761.45 313.4 751.7 313.05 742 312.7 733.35 308.75 724.75 304.8 718.1 297.65 711.8986328125 290.9787109375 708.6 282.65 710.188671875 286.34921875 712.75 289.5"/>

<path id="Layer1_5_1_STROKES" stroke="#33CC99" stroke-width="5" stroke-linejoin="round" stroke-linecap="round" fill="none" d="
M 780.85 247.1
L 783 249.1
Q 783.2 249.65 783.9 250.25 784.3 250.6 785.1 251.25 786.5 252.2 788.25 254.35 788.85 255.3 788.85 255.35 790.1 257.3 791.85 261.35"/>

<path id="Layer1_6_1_STROKES" stroke="#33CC99" stroke-width="5" stroke-linejoin="round" stroke-linecap="round" fill="none" d="
M 714.1 291.75
Q 707.95 279.9 708.1 268.5 708.1 262.25 710.25 256.55 712.5 250.6 716.6 246.35"/>
</defs>

<g transform="matrix( 1, 0, 0, 1, -79.6,0) ">
<use xlink:href="#Layer4_0_FILL"/>
</g>

<g transform="matrix( 1, 0, 0, 1, -79.6,0) ">
<use xlink:href="#Layer2_0_FILL"/>
</g>

<g transform="matrix( 1, 0, 0, 1, -79.6,0) ">
<use xlink:href="#Layer1_0_FILL"/>
</g>

<g transform="matrix( 0.99591064453125, -0.089996337890625, 0.089996337890625, 0.99591064453125, -307.8,-291.65) ">
<use xlink:href="#Layer1_1_1_STROKES" transform="matrix( 0.9959716796875, 0.089996337890625, -0.089996337890625, 0.9959716796875, 280.3,318.15) "/>
</g>

<g transform="matrix( 0.99591064453125, -0.089996337890625, 0.089996337890625, 0.99591064453125, -307.8,-291.65) ">
<use xlink:href="#Layer1_2_1_STROKES" transform="matrix( 0.9959716796875, 0.089996337890625, -0.089996337890625, 0.9959716796875, 280.3,318.15) "/>
</g>

<g transform="matrix( 1, 0, 0, 1, -340.65,-231.15) ">
<use xlink:href="#Layer1_3_1_STROKES"/>
</g>

<g transform="matrix( 1, 0, 0, 1, -340.65,-231.15) ">
<use xlink:href="#Layer1_4_1_STROKES"/>
</g>

<g transform="matrix( 1, 0, 0, 1, -340.65,-231.15) ">
<use xlink:href="#Layer1_5_1_STROKES"/>
</g>

<g transform="matrix( 1, 0, 0, 1, -340.65,-231.15) ">
<use xlink:href="#Layer1_6_1_STROKES"/>
</g>
</svg>
