
<svg xmlns="http://www.w3.org/2000/svg" version="1.1" xmlns:xlink="http://www.w3.org/1999/xlink" preserveAspectRatio="none" x="0px" y="0px" width="457px" height="348px" viewBox="0 0 457 348">
<defs>
<g id="Layer4_0_FILL">
<path fill="#FF3300" stroke="none" d="
M 1395.9 283.15
L 1395.35 283.1
Q 1394.8 283.05 1394.45 283.25 1393.35 283.7 1393.3 285.3 1393.15 286.65 1393.55 288.5
L 1393.55 288.55
Q 1393.8 289.5 1394.35 291.35 1394.5 292.3 1394.7 294.25 1394.7 294.3 1394.75 294.35 1395.05 296.2 1395.65 297.45
L 1395.7 297.5 1396.7 299.15 1396.75 299.2
Q 1398.65 302.05 1399.2 303 1399.2 303.05 1399.25 303.1 1400.15 304.3 1400.9 304.75 1401.4 305.85 1402.35 306.65 1389 313.2 1380.9 325.95 1372.75 338.9 1370.7 354.1
L 1367.25 353.5 1367.15 353.45
Q 1357.45 352.65 1348.55 356 1337.05 346.8 1323.65 341.05 1310.2 335.05 1295.75 332.9 1281.65 330.85 1267.45 333.2 1252.75 335.9 1239.75 343 1225.9 350.55 1214.15 361 1202.65 371.3 1191.95 382.5 1182.25 392.65 1172.4 402.95 1162.2 413.65 1150.95 423.05 1139.1 432.85 1125.45 439.9 1114.8 445.35 1103.1 447.4 1102.95 447.3 1102.8 447.3
L 1101.3 446.95
Q 1100.9 446.8 1100.55 447.05 1100.2 447.25 1100.1 447.65 1100.05 447.75 1100.05 447.9 1099.75 447.9 1099.5 447.95 1099.4 447.9 1099.3 447.85 1098.9 447.65 1098.55 447.85 1098.05 448 1097.6 448.2 1097.25 448.2 1096.95 448.25 1096.55 448.3 1096.3 448.65 1087.85 451.15 1079.3 447.05 1066.85 441.3 1053.85 437.6 1047.35 435.65 1040.85 437.7 1040.55 437.8 1040.35 438.05 1040.15 438.3 1040.15 438.65 1040.15 439 1040.35 439.25 1052.25 455.45 1072.15 459.8 1088.7 463.2 1105.8 462.15
L 1105.85 462.15
Q 1146.5 459.25 1183.35 441.05 1200.7 432.6 1217.1 422.9
L 1217.1 422.95
Q 1228.05 416.55 1238.95 409.9 1241.6 408.2 1244.35 406.6 1244.9 407.3 1245.5 408.1
L 1245.55 408.1
Q 1249.9 413.6 1245.65 419.3 1241.35 425.1 1236.4 430.25 1225.8 441.35 1216.4 453.95 1209.7 462.95 1203.8 472.35 1203.65 472.25 1203.5 472.25 1203.1 472.2 1202.8 472.5 1202.45 472.75 1202.4 473.15 1202.3 474.2 1202.3 475.25 1202.2 490.8 1209.8 504.6 1217.5 518.6 1219.35 534.35
L 1219.35 534.4
Q 1219.7 537.4 1218.8 540.5 1217.05 546.5 1220.5 551.5 1221.95 553.6 1224.4 553.2
L 1224.45 553.2
Q 1234.95 550.7 1235.7 539.15 1236.75 522.95 1230.2 507.9 1227.25 501.05 1226.05 493.65 1224.8 486.2 1225.5 479.35 1226.85 477.9 1228.25 476.45 1237.95 466 1249.5 457.4 1261.9 448.25 1274.7 439.7 1287.8 431.05 1298.9 420.2 1308.2 411.1 1306.85 398.95 1320.65 404.05 1334.8 408.35 1341.25 410.35 1347.75 411.1 1350.4 415.3 1352.9 419.5 1357 426.3 1358.1 434.15 1358.7 438.2 1357.35 442.4 1355.6 447.7 1360.1 450.4
L 1360.1 450.45
Q 1362.1 451.55 1364 450.55 1372 445.95 1374.95 436.8 1378 427.4 1374.8 417.9 1373.35 413.55 1371.9 409.3 1383.25 405.7 1391.15 396.25 1394.7 392 1396.25 386.65 1399.5 374.9 1399.65 362.65 1399.8 349.45 1409.7 337.15 1424.25 344.2 1439.95 340.75 1442.55 340.1 1444.75 338.6 1444.9 338.45 1445.05 338.25 1445.15 338.05 1445.15 337.8 1445.6 328.8 1438.55 322.25
L 1438.55 322.2
Q 1433.1 317.25 1427.25 312.8
L 1427.3 312.8
Q 1421.5 308.3 1414.65 305.65
L 1414.6 305.65
Q 1412.35 304.75 1410.1 304.55 1410.25 304.45 1410.4 304.35 1411.75 302.8 1412.35 300.7
L 1412.35 300.8
Q 1412.65 300.05 1413.05 297.55
L 1413.05 297.6
Q 1413.7 293.85 1413.55 291.1
L 1413.55 291.05
Q 1413.35 288.95 1412.8 286.55 1412.1 283.6 1411.55 282.1 1410.55 279.5 1409 278.05 1408.75 277.8 1408.45 277.75 1408.15 277.7 1407.85 277.9 1407.55 278 1407.4 278.3 1405.15 282.8 1403.7 287.75
L 1403.5 287.6
Q 1402.85 287 1402.8 286.55 1402.85 286.2 1402.7 285.9 1402.5 285.6 1402.15 285.5 1401.8 285.35 1401.5 285.45 1401.1 285.55 1400.6 285.3 1400.4 285.2 1399.2 284.45
L 1399.15 284.4
Q 1397.85 283.6 1396.15 283.2 1396 283.15 1395.9 283.15
M 1421.15 318.45
Q 1421.3 318.55 1421.45 318.65 1421.65 318.85 1421.7 319.05 1422.15 320.4 1422.2 320.8 1422.3 321.75 1422.2 322.35 1422.3 323.25 1422 323.7 1421.95 323.75 1421.95 323.8 1421.85 323.95 1421.8 324.05 1421.3 324.7 1420.1 325.1 1420 325.1 1419.9 325.1 1419.6 325.15 1419.3 325.2 1418.9 325.25 1418.65 325 1417.9 325.15 1417.5 324.9 1417.3 324.85 1417.2 324.75 1416.9 324.45 1416.7 324.25
L 1416.65 324.2 1416.25 323.95
Q 1415.55 323.6 1415.45 323.1 1415.25 322.75 1415.25 322.3
L 1415.25 321.7
Q 1415.25 321.65 1415.05 321.1 1414.85 320.2 1415.2 319.7 1415.25 319.65 1415.3 319.6 1415.6 319.2 1416.4 318.75 1416.55 318.65 1416.75 318.6 1416.85 318.6 1417.45 318.35 1418.5 317.85 1419.35 317.95
L 1419.45 317.95
Q 1420 318.05 1421.15 318.45 Z"/>

<path fill="#000000" stroke="none" d="
M 1421.45 318.65
Q 1421.3 318.55 1421.15 318.45 1420 318.05 1419.45 317.95
L 1419.35 317.95
Q 1418.5 317.85 1417.45 318.35 1416.85 318.6 1416.75 318.6 1416.55 318.65 1416.4 318.75 1415.6 319.2 1415.3 319.6 1415.25 319.65 1415.2 319.7 1414.85 320.2 1415.05 321.1 1415.25 321.65 1415.25 321.7
L 1415.25 322.3
Q 1415.25 322.75 1415.45 323.1 1415.55 323.6 1416.25 323.95
L 1416.65 324.2 1416.7 324.25
Q 1416.9 324.45 1417.2 324.75 1417.3 324.85 1417.5 324.9 1417.9 325.15 1418.65 325 1418.9 325.25 1419.3 325.2 1419.6 325.15 1419.9 325.1 1420 325.1 1420.1 325.1 1421.3 324.7 1421.8 324.05 1421.85 323.95 1421.95 323.8 1421.95 323.75 1422 323.7 1422.3 323.25 1422.2 322.35 1422.3 321.75 1422.2 320.8 1422.15 320.4 1421.7 319.05 1421.65 318.85 1421.45 318.65
M 1420.2 322.55
Q 1420.2 322.6 1420.3 322.6 1420.2 322.75 1420.1 322.9
L 1420.1 322.95
Q 1420.05 322.95 1419.95 323 1419.75 322.85 1419.45 322.85 1419.65 322.55 1420 322.5 1420.1 322.5 1420.2 322.55 Z"/>

<path fill="#FFFFFF" stroke="none" d="
M 1420.3 322.6
Q 1420.2 322.6 1420.2 322.55 1420.1 322.5 1420 322.5 1419.65 322.55 1419.45 322.85 1419.75 322.85 1419.95 323 1420.05 322.95 1420.1 322.95
L 1420.1 322.9
Q 1420.2 322.75 1420.3 322.6 Z"/>
</g>

<g id="Layer2_0_FILL">
<path fill="#CCCCCC" stroke="none" d="
M 1370.45 406.65
Q 1369.7 407 1369.05 407.2 1368.8 407.25 1368.6 407.45 1368.55 407.45 1368.55 407.5
L 1368.3 407.5
Q 1367.9 407.5 1367.6 407.8 1367.4 407.95 1367.35 408.2 1358.5 411.75 1348.9 413.25 1348.5 413.3 1348.2 413.35
L 1348.1 413.55 1347.9 414.85
Q 1347.85 415.65 1347.8 416.15 1348.25 418.3 1348.75 419.4
L 1348.75 419.45
Q 1350.2 422.25 1352.55 422.9
L 1352.6 422.9
Q 1354.35 423.25 1356.8 422.5 1365.55 420.4 1370.6 418.05
L 1370.65 418.05
Q 1374 416.2 1374.4 413.95 1374.6 413.1 1374.4 411.6
L 1374.4 411.55
Q 1374.4 411.4 1374.4 411.3 1374.55 411.25 1374.75 411.25
L 1374.65 410.35
Q 1374.65 409.8 1374.5 409.25 1374.4 409.25 1374.3 409.3 1374.25 409.1 1374.1 408.9 1373.85 408.6 1373.5 408.5 1373.45 408.4 1373.4 408.3
L 1373.4 407.4
Q 1373.4 407.05 1373.2 406.8 1373 406.5 1372.65 406.45 1372.15 406.25 1370.75 406.55 1370.55 406.55 1370.45 406.65
M 1367.1 333.4
Q 1367.1 333.45 1367.15 333.5 1367 333.5 1366.85 333.55 1365.7 333.75 1365.35 334.2 1365.3 334.25 1365.25 334.35
L 1364.7 335.05 1364 335.6
Q 1363.4 335.85 1363.1 337.15
L 1362.75 338.05
Q 1362.65 338.15 1362.65 338.3 1362.6 338.65 1362.5 339.35 1362.45 339.4 1362.45 339.5 1362.45 339.6 1362.45 339.7
L 1362.4 339.7
Q 1362.45 340.3 1362.5 341.2 1362.5 341.25 1362.65 341.7 1364.15 341.8 1365.45 342.1 1372.8 345.3 1379.9 352.4 1384.4 356.9 1391.75 366.5 1394.5 370.05 1395.4 371.7
L 1395.45 371.75
Q 1395.9 372.7 1396.9 374.4 1397.6 375.65 1397.65 376.7
L 1397.65 376.8
Q 1398.2 381.6 1397.05 386.5 1396.6 388.25 1395.95 389.9 1396.2 390.15 1396.4 390.45 1396.8 391.05 1397.25 392.05 1397.3 391.9 1397.4 391.75 1397.8 391.8 1398.15 391.55 1403.95 387.2 1406.75 384.4
L 1406.8 384.4
Q 1411.2 379.85 1412.75 375.05
L 1412.75 375.1
Q 1414 371.25 1413.65 367.85 1413.3 362.95 1410.75 358 1410.9 358 1411.1 358.05
L 1411.05 358 1410.45 356.75 1410.25 356
Q 1407.9 355.75 1405.65 355.2 1405.4 355 1405.05 355 1404.95 355 1404.9 355.05 1404.75 355 1404.65 354.95 1404.4 354.85 1404.3 354.85 1403.85 354.65 1403.3 354.65
L 1402.95 354.65
Q 1402.9 354.6 1402.85 354.55 1402.6 354.4 1402.4 354.35
L 1402.25 354.2
Q 1402 353.95 1401.65 353.9 1400.2 353.05 1397.95 352.75
L 1397.9 352.75
Q 1394.9 352.45 1393.5 352.2
L 1393.55 352.2
Q 1392.1 351.8 1388.35 349.85
L 1388.4 349.9
Q 1386.8 348.95 1386.05 348.45
L 1386 348.45
Q 1384.65 347.6 1383.8 346.95 1382.85 346.05 1382.35 345.7 1381.4 344.95 1380.55 344.65 1379 343.2 1374.95 339.8 1371.85 337 1369.55 333.6
L 1367.1 333.4 Z"/>
</g>

<g id="Layer1_0_FILL">
<path fill="#33CC99" stroke="none" d="
M 1347.15 342.5
Q 1346 342.95 1345.2 343.35
L 1345.25 343.35
Q 1341.7 345.05 1340.35 346.75 1340 346.85 1339.75 347.15
L 1337.6 350.15 1337.6 350.2
Q 1337 350.95 1336.6 352.05 1336.6 352.1 1336.6 352.15 1336.45 352.65 1336.2 353.95
L 1336.2 354
Q 1336.05 354.45 1335.55 355.4 1335.05 356.15 1334.45 357.95
L 1334.45 357.9
Q 1334 359.2 1333.6 361.2 1332.9 364.3 1333.45 367.35
L 1333.4 367.3
Q 1333.45 367.75 1333.6 368.2 1329.9 371.7 1328.6 375.85
L 1328.6 375.9
Q 1327.1 380.8 1328.85 388.35 1331.25 400.25 1338.35 410.7 1340.2 413.5 1342.3 414.75 1342.35 414.8 1342.4 414.85 1343.8 415.45 1345.8 415.5 1346.95 415.5 1349.2 415.25 1359.45 413.65 1368.9 409.75 1369 409.65 1369.1 409.6 1369.15 409.55 1369.25 409.5 1369.5 409.5 1369.8 409.3 1369.95 409.15 1370.05 409 1370.6 408.75 1371.25 408.45 1371.3 408.45 1371.4 408.45
L 1371.4 408.65
Q 1371.4 408.9 1371.55 409.15 1371.55 409.2 1371.65 409.3 1371.6 409.6 1372.2 410.2 1372.25 410.35 1372.35 410.7
L 1372.4 410.9
Q 1372.5 411.15 1372.75 411.35 1373 411.5 1373.3 411.5 1373.35 411.5 1373.5 411.5 1379.1 410.45 1383.3 407.8 1387 405.55 1391.3 400.95 1393.75 398.25 1394.9 396.45 1397.75 392 1399 386.95 1400.2 381.75 1399.65 376.6
L 1399.65 376.55
Q 1399.6 375.2 1398.65 373.45
L 1398.6 373.4
Q 1397.65 371.75 1397.2 370.85
L 1397.2 370.8
Q 1396.25 369.1 1393.35 365.3 1385.9 355.6 1381.3 351 1374.85 344.55 1368.3 341.2 1368.1 340.85 1367.75 340.75 1367.05 340.45 1366.25 340.25
L 1366.2 340.25
Q 1366 340.15 1365.85 340.15 1361.25 339.1 1354.5 340.3 1351.45 340.75 1349.9 341.3
L 1349.85 341.3
Q 1349.3 341.45 1347.2 342.5
L 1347.15 342.5 Z"/>
</g>

<path id="Layer4_1_1_STROKES" stroke="#000000" stroke-width="5" stroke-linejoin="round" stroke-linecap="round" fill="none" d="
M 777 311.85
Q 777.5 312.35 777.6 312.75 777.75 312.85 777.75 313.25 777.85 313.5 778 314"/>

<path id="Layer1_1_1_STROKES" stroke="#33CC99" stroke-width="2" stroke-linejoin="round" stroke-linecap="round" fill="none" d="
M 364.97984619140624 100.80426635742188
Q 356.96531372070325 93.68663940429681 353.8120483398438 82.78856811523437 350.66831665039064 71.99003295898436 353.5375549316406 61.56983642578129 356.52062988281244 51.28941040039061 364.84012451171867 43.76245727539063 373.2046203613282 36.18096923828122 383.7146484375 34.22003784179688 395.25073852539066 31.959930419921903 410.568408203125 36.67041625976563 424.55397338867186 41.10669555664063 432.71361083984374 49.21491699218754 442.07301635742175 58.313165283203176 443.95518188476564 72.19578857421877 445.8871154785157 86.07364501953126 439.22863769531244 97.3088012695313 432.68399658203117 108.68372802734379 419.7275024414062 113.94268798828128 406.8207763671874 119.19688110351566 394.12974853515624 115.69132690429691"/>

<path id="Layer1_2_1_STROKES" stroke="#33CC99" stroke-width="2" stroke-linejoin="round" stroke-linecap="round" fill="none" d="
M 359.36717529296874 86.776708984375
Q 357.0214355468749 79.06589355468756 357.2567687988282 71.55988159179682 357.52966918945305 63.39735107421879 360.87025756835936 56.849530029296915 365.2998413085938 48.037744140624994 374.64920043945307 42.87315673828127 383.6692504882813 37.94100952148435 393.97180786132816 38.008935546874994 403.6226135253907 38.08906249999998 413.2804565429687 42.43760986328127 422.2081787109375 46.50451660156247 429.8743347167969 53.65551147460937 439.51804809570314 62.57585449218752 441.0755004882812 72.01958618164068 442.2527404785157 79.59119873046873 438.48024291992186 89.49521484375 433.5335144042968 101.82203369140629 425.15624999999994 107.6971069335938 417.134228515625 113.08613281249998 405.70607299804686 113.32691650390629 390.7703186035157 113.65253906249998 377.62854003906256 104.91657104492188 364.53652954101557 96.17583618164068 359.03769531250003 82.28804931640624"/>

<path id="Layer1_3_1_STROKES" stroke="#33CC99" stroke-width="2" stroke-linejoin="round" stroke-linecap="round" fill="none" d="
M 732 331.25
Q 736.7 335.15 738.25 336.6 739.05 336.85 739.9 337.55 740.4 337.95 741.35 338.85 742.25 339.55 743.7 340.4 744.5 340.9 746.1 341.85 750 343.85 751.5 344.25 752.95 344.55 756 344.85 758.65 345.2 760 346.35"/>

<path id="Layer1_4_1_STROKES" stroke="#33CC99" stroke-width="5" stroke-linejoin="round" stroke-linecap="round" fill="none" d="
M 722.55 303.05
Q 722.45 294.85 725.75 287.6 729 280.4 735.3 275.1 741.55 269.8 749.25 267.75 757.6 265.45 767.15 267.1 775.55 268.5 784.35 272.85 800.7 280.8 806.75 293.25 811.6 303.15 809.4 314.85 807.2 326.4 799.25 334.35 791.35 342.1 779.95 344.85 768.75 347.55 757.85 344.5 747.3 341.6 738.6 334 730.95234375 327.251953125 726.2 318.3 725.66875 317.3001953125 725.175 316.275 722.6357421875 310.03125 722.55 303.05 Z"/>

<path id="Layer1_5_1_STROKES" stroke="#33CC99" stroke-width="5" stroke-linejoin="round" stroke-linecap="round" fill="none" d="
M 726.85 319
Q 722.95 305.55 724.5 291.25"/>
</defs>

<g transform="matrix( 1, 0, 0, 1, -1009.65,-240.05) ">
<use xlink:href="#Layer4_0_FILL"/>
</g>

<g transform="matrix( 1, 0, 0, 1, -367.85,-231.15) ">
<use xlink:href="#Layer4_1_1_STROKES"/>
</g>

<g transform="matrix( 1, 0, 0, 1, -1009.65,-240.05) ">
<use xlink:href="#Layer2_0_FILL"/>
</g>

<g transform="matrix( 1, 0, 0, 1, -1009.65,-240.05) ">
<use xlink:href="#Layer1_0_FILL"/>
</g>

<g transform="matrix( 0.995361328125, -0.0953369140625, 0.0953369140625, 0.995361328125, -321.3,-255.35) ">
<use xlink:href="#Layer1_1_1_STROKES" transform="matrix( 0.995513916015625, 0.0953521728515625, -0.0953521728515625, 0.995513916015625, 295.5,284.8) "/>
</g>

<g transform="matrix( 0.995361328125, -0.0953369140625, 0.0953369140625, 0.995361328125, -321.3,-255.35) ">
<use xlink:href="#Layer1_2_1_STROKES" transform="matrix( 0.995513916015625, 0.0953521728515625, -0.0953521728515625, 0.995513916015625, 295.5,284.8) "/>
</g>

<g transform="matrix( 1, 0, 0, 1, -367.85,-231.15) ">
<use xlink:href="#Layer1_3_1_STROKES"/>
</g>

<g transform="matrix( 1, 0, 0, 1, -367.85,-231.15) ">
<use xlink:href="#Layer1_4_1_STROKES"/>
</g>

<g transform="matrix( 1, 0, 0, 1, -367.85,-231.15) ">
<use xlink:href="#Layer1_5_1_STROKES"/>
</g>
</svg>
