
<svg xmlns="http://www.w3.org/2000/svg" version="1.1" xmlns:xlink="http://www.w3.org/1999/xlink" preserveAspectRatio="none" x="0px" y="0px" width="457px" height="348px" viewBox="0 0 457 348">
<defs>
<g id="Layer4_0_FILL">
<path fill="#FF3300" stroke="none" d="
M 363.3 168.15
Q 351.3 161.25 338.15 156.5 324.2 151.5 309.25 151.55 299 151.55 289.5 155.55
L 289.45 155.55
Q 274.35 161.9 263.3 174.2 253.15 185.4 243.1 196.6 233.95 206.8 222.8 214.9 211.65 222.9 199 228.25 184.5 234.35 168.75 236.1 155 237.4 141.55 235.05 126.6 232.3 113.8 224.6 113.8 224.5 113.8 224.45 113.65 224.05 113.3 223.85 109.2 221.45 104.45 220.05
L 104.5 220.05
Q 104 219.9 103.6 219.65 103.55 219.65 103.5 219.6 99.3 217.45 96 220.35 94.4 221.7 95.05 223.8 96.1 227.15 97.2 230.65 97.8 232.7 99.5 234.25 101 235.6 102.05 237.25 102.05 237.35 102.1 237.55 102.15 237.95 102.5 238.2 115 247.05 129.4 252.55 144.15 258.1 159.65 260.45 175.2 262.75 190.7 262.05 206 261.35 220.85 258.2 236.05 255.05 250.95 249.85 265.45 244.75 279.35 238.15 285.1 235.4 290.9 232.65 291.05 232.85 291.25 233.05 293.2 235.4 292.95 238.65 292.5 244.8 290.15 250.45
L 290.15 250.5
Q 284.25 264.6 277.15 278.3
L 277.2 278.3
Q 276.95 278.75 276.75 279.2 270 292.2 264.9 305.95
L 264.95 305.95
Q 262.8 311.6 261.25 317.6 261.15 318 261.35 318.35 261.45 318.5 261.55 318.6 261.3 318.75 261.15 319.05 260.95 319.4 261.1 319.8 261.25 320.2 261.65 320.35 274.75 326.4 288.2 331.85 301.6 337.2 315.6 340.8 331.3 344.65 347.45 344.25 352.8 344.1 358.15 343.35 358.15 343.4 358.25 343.45 358.55 343.65 359 343.6 362.45 343 363.55 340.8 364.75 338.75 363.55 335.25 362.85 333.2 361.1 332.25 354.65 328.85 347.15 330.45 343.35 331.2 339.45 331.3 325 331.7 311.8 326.15 298.75 320.6 289.15 310.3
L 291.95 305.75
Q 292.05 305.6 292.1 305.45
L 292.35 304.3
Q 292.5 304.2 292.6 304.05 299.8 294.2 306.95 284.4 308.8 281.8 310.7 279.2 317.7 269.4 324.75 259.65 332.75 248.4 340.9 237.25 344.2 232.7 345.05 227.7 345.1 227.75 345.2 227.8 352.85 230.85 360.8 231.85 360.75 232.15 360.7 232.4 359.1 243.6 352.75 252.85 348.5 258.85 349.05 265.8 349.1 266.2 349.4 266.45 355 271.35 360.75 265.55 376.05 250.15 384.7 230.55 388 229.8 391.2 228.65 398.1 226.2 404.35 222.1 416.55 214.05 425.6 202.8 434.75 191.25 437.9 176.8 438.5 173.85 438.9 170.95 451.45 176 465.1 174.65 469.6 174.4 471.05 170.75 471.2 170.6 471.3 170.4 471.5 170 471.35 169.65 467.4 157.9 458.2 149.5 454.65 146.35 451.35 143.1 448.6 140.35 445.4 139 448.2 137.8 450.55 135.65 458.75 128 456.15 117 456.05 116.65 455.8 116.45 455.55 116.25 455.25 116.2 454.9 116.2 454.65 116.35 453.1 117.25 451.65 118.3 447.85 120.8 444.8 124
L 442.55 114.75
Q 442.45 114.35 442.15 114.15 441.8 113.9 441.45 113.95 441.1 114 440.85 114.3 440.2 114.95 439.75 115.75
L 439.75 115.8
Q 434.1 126.2 433.1 138 425.9 139.5 420.85 145.45 411.35 156.7 409.55 171.15 404.8 168.2 399.3 167.3 395.2 166.5 391.2 166.35 379.9 165.9 369.1 170.45 368.7 170.6 368.55 171 368.5 171.05 368.5 171.2 365.85 169.65 363.3 168.15
M 444.4 150.5
Q 444.55 150.4 444.75 150.4 444.85 150.4 445.5 150.2 446.65 149.85 447.45 150.05
L 447.55 150.05
Q 448.1 150.2 449.15 150.8 449.3 150.9 449.45 151.05 449.6 151.25 449.65 151.45 449.9 152.85 449.9 153.25 449.9 154.2 449.75 154.75 449.7 155.65 449.35 156.05 449.3 156.1 449.3 156.15 449.2 156.3 449.1 156.4 448.55 157 447.3 157.25 447.2 157.25 447.1 157.25 446.8 157.25 446.5 157.25 446.1 157.25 445.85 157 445.1 157.05 444.75 156.75 444.55 156.65 444.45 156.5 444.2 156.15 444.05 155.95
L 444 155.9 443.6 155.6
Q 443 155.15 442.95 154.65 442.8 154.3 442.85 153.85
L 442.9 153.25
Q 442.9 153.2 442.8 152.65 442.7 151.75 443.1 151.3 443.15 151.25 443.2 151.2 443.55 150.85 444.4 150.5
M 447.45 155.15
Q 447.55 155.1 447.6 155.1
L 447.6 155.05
Q 447.7 154.9 447.8 154.8 447.75 154.75 447.75 154.7 447.65 154.65 447.55 154.65 447.2 154.65 446.95 154.9 447.25 154.95 447.45 155.15 Z"/>

<path fill="#000000" stroke="none" d="
M 444.75 150.4
Q 444.55 150.4 444.4 150.5 443.55 150.85 443.2 151.2 443.15 151.25 443.1 151.3 442.7 151.75 442.8 152.65 442.9 153.2 442.9 153.25
L 442.85 153.85
Q 442.8 154.3 442.95 154.65 443 155.15 443.6 155.6
L 444 155.9 444.05 155.95
Q 444.2 156.15 444.45 156.5 444.55 156.65 444.75 156.75 445.1 157.05 445.85 157 446.1 157.25 446.5 157.25 446.8 157.25 447.1 157.25 447.2 157.25 447.3 157.25 448.55 157 449.1 156.4 449.2 156.3 449.3 156.15 449.3 156.1 449.35 156.05 449.7 155.65 449.75 154.75 449.9 154.2 449.9 153.25 449.9 152.85 449.65 151.45 449.6 151.25 449.45 151.05 449.3 150.9 449.15 150.8 448.1 150.2 447.55 150.05
L 447.45 150.05
Q 446.65 149.85 445.5 150.2 444.85 150.4 444.75 150.4
M 447.6 155.1
Q 447.55 155.1 447.45 155.15 447.25 154.95 446.95 154.9 447.2 154.65 447.55 154.65 447.65 154.65 447.75 154.7 447.75 154.75 447.8 154.8 447.7 154.9 447.6 155.05
L 447.6 155.1 Z"/>
</g>

<g id="Layer2_0_FILL">
<path fill="#CCCCCC" stroke="none" d="
M 382.1 238.15
Q 381.35 238.15 380.2 237.9 363.4 233.9 354.7 231.9 354.65 231.75 354.55 231.6 354.5 231.6 354.4 231.6
L 352.85 231.65
Q 352.7 231.85 352.7 232.05 352 233.1 351.6 233.65 351.55 233.7 351.55 233.75 350.85 234.8 350.6 235.85 349.8 238.85 351.3 240.5
L 351.25 240.5
Q 351.65 241 353.2 241.95 353.2 242 353.25 242 356.35 243.6 363.5 245.2
L 374.25 247.45
Q 376.05 247.85 377 247.9
L 377.05 247.9
Q 378.75 247.95 380 247.35
L 379.95 247.4
Q 383.2 246.05 384.2 239.85 383.85 239.7 383.6 239.5 383.15 239.15 382.7 238.65
L 382.25 238.15 382.1 238.15
M 404.9 166.65
Q 404.2 167.35 404.1 167.95 404 168.2 404.1 168.45 403.95 168.65 403.95 168.95 403.95 169.35 404.25 169.65 412.7 178.15 417.8 189.3 420.4 194.95 421.9 200.85 423.35 206.55 423.8 212.45
L 423.8 212.5
Q 424.05 214.1 423.5 215.05 423.4 215.15 423.4 215.25 423.75 215.25 424.15 215.25 424.95 215.3 425.6 215.35 425.65 215.2 425.7 215.05 427.15 214.6 428.55 214.05 431.3 212.9 433.65 211.15 433.7 211.1 433.75 211.05 434 210.85 434.2 210.35 437.05 208.45 438.9 205.7 439.55 205.15 440.35 204.2
L 440.4 204.15
Q 440.8 203.65 441.7 202.6 441.75 202.55 441.8 202.55 444.05 199.4 445 195.55 445.8 192 445.4 188.55 445.45 188.55 445.6 188.55 445.5 188.3 445.45 188.1 445.35 187.6 445.35 186.65
L 445.35 186.5
Q 440.55 185.5 436.05 183.25 435.95 183.25 435.85 183.2 435.2 182.95 434.55 182.7 434.45 182.7 434.4 182.75 432.95 182.2 431.7 181.4 427.35 179.15 423.85 175.55
L 423.2 174.85
Q 421.85 173.75 419.5 171.6
L 418.95 171.1
Q 418.55 170.75 418.4 170.55
L 417.7 169.9
Q 414.4 166.7 413.3 164.9 412.6 164.15 412 163.85 411.95 163.5 411.9 163.35 411.8 163.1 411.65 163 411.5 162.8 411.3 162.75 410.85 162.6 410.55 162.5 410.5 162.4 410.5 162.35 409.8 162.55 408.55 163.1 407.6 163.5 406.95 163.6 406.9 163.65 406.9 163.7 406.8 163.7 406.65 163.75 406.6 163.75 406.55 163.8 405.9 164.15 405.65 164.5
L 405.65 164.55
Q 405.2 165 405.2 166.3 405.1 166.4 404.9 166.65 Z"/>
</g>

<g id="Layer1_0_FILL">
<path fill="#33CC99" stroke="none" d="
M 363.85 185.2
Q 363.85 185.25 363.85 185.3 363.75 185.85 363.55 186.2 363 186.65 362.75 186.9 362.7 186.95 362.65 187.05 362.2 187.65 362 188.55 361.5 189.7 361.25 190.15 361.2 190.15 361.2 190.2 359.5 193.05 359.3 193.6 359.25 193.65 359.25 193.7 358.9 194.8 358.75 195.15 358.7 195.2 358.65 195.25 358.5 195.55 358.2 196.05
L 358.15 196.05
Q 357.75 196.2 357.65 196.6 357 198.15 356.45 199.7 356.3 199.85 356.25 200.05 356.2 200.2 356.2 200.4 350.85 215.85 352.45 232.3 352.5 232.7 352.85 233 353.15 233.25 353.55 233.2 363.2 236.2 368.1 237.45 376.4 239.6 383.2 240.35 383.25 240.35 383.3 240.35 384.45 240.8 385 239.3 385.1 239.05 385.2 238.8
L 385.25 238.7
Q 385.35 238.6 385.4 238.55 385.75 238.25 385.9 237.75 386 237.7 386.1 237.6 386.3 237.45 386.4 237.2 386.4 237.15 386.45 237.1 388.65 237.65 391.2 237.35 392.5 237.15 393.9 236.8
L 393.9 236.75
Q 395.05 236.4 396.65 235.8 397.75 235.35 399 234.8 400.05 234.3 401.25 233.75 406.95 231 410.35 228.95 418.25 224 423.95 216.55 424.05 216.55 424.15 216.6 424.55 215.95 425.15 215.05 425.3 214.75 425.55 214.3 425.6 213.5 425.65 213.05 425.65 211.65 425.7 210.65
L 425.65 210.65
Q 424.5 199.15 419.6 188.45 414.4 176.95 405.65 168.25 405.55 168.15 405.5 168.15 405.35 167.75 405 167.55 401 165.55 396.65 164.55 395.5 164.25 394.3 164.1 392.75 163.85 391.2 163.7 387.1 163.35 383.05 163.95 378.9 164.6 371.15 167.15 371.1 167.15 371.1 167.2 370.5 167.4 367.45 168.4 367.15 168.3 366.85 168.4 366.45 168.55 366.3 168.95 365.6 170.4 365.25 172.15
L 365.25 172.2 364.85 174.3
Q 364.8 174.3 364.8 174.35 364.7 175.35 364.3 180.4
L 364.3 180.45
Q 364.3 181.1 364.45 184 364.2 184.3 364 184.75 363.9 184.95 363.85 185.2 Z"/>
</g>

<path id="Layer4_1_1_STROKES" stroke="#000000" stroke-width="5" stroke-linejoin="round" stroke-linecap="round" fill="none" d="
M 563.5 385
Q 563.7 385 564.1 385.25"/>

<path id="Layer1_1_1_STROKES" stroke="#33CC99" stroke-width="2" stroke-linejoin="round" stroke-linecap="round" fill="none" d="
M 329.9527221679688 162.7027648925781
Q 323.70524291992194 153.99192504882808 323.03360595703134 142.66592407226562 322.34931030273435 131.43911743164057 327.44682006835944 121.90784912109376 332.6245361328125 112.53803100585935 342.4001586914062 107.03129272460933 352.2317077636719 101.48128662109372 362.916162109375 101.8870910644531 374.6674743652344 102.2274230957031 388.5697265625 110.20136108398435 401.23308715820315 117.61395874023435 407.4035766601563 127.32307128906251 414.52595825195317 138.2625671386719 413.2993103027345 152.21939697265628 412.12225952148447 166.18255615234375 403.1488037109375 175.67283935546874 394.25555419921875 185.3245727539063 380.4571655273438 187.59608154296882 366.7083740234375 189.87391967773442 355.1024291992188 183.65476684570308"/>

<path id="Layer1_2_1_STROKES" stroke="#33CC99" stroke-width="2" stroke-linejoin="round" stroke-linecap="round" fill="none" d="
M 327.5724731445313 147.78159179687498
Q 326.98540039062493 139.74270019531247 328.870819091797 132.4729797363281 330.9377136230469 124.57115478515624 335.6407287597657 118.92112426757814 341.90543212890634 111.302978515625 352.16447143554683 108.3277709960937 362.0510131835938 105.50664672851559 372.08551635742197 107.845703125 381.4815856933594 110.05288085937497 389.9428833007812 116.4251831054687 397.7541259765625 122.36169433593744 403.6544250488282 131.02822875976562 411.093377685547 141.85690917968753 410.52923583984375 151.41224975585936 410.0072204589844 159.05758056640622 404.14251098632815 167.88608398437498 396.5979309082031 178.8188354492188 387.13037109375 182.70152587890618 378.116552734375 186.1884765624999 366.9159973144532 183.9022338867187 352.2752868652344 180.92495117187502 341.3835205078126 169.50442504882812 330.5413513183594 158.09022827148436 328.2413085937501 143.33050537109375"/>

<path id="Layer1_3_1_STROKES" stroke="#33CC99" stroke-width="2" stroke-linejoin="round" stroke-linecap="round" fill="none" d="
M 526.5 394.25
Q 527 394.5 528 394.85 528.1 395.1 528.1 395.75 529.1 395.9 530.45 397.75 531.75 399.55 532.75 399.6 532.75 400.2 533.25 400.7 533.8 401.2 534.35 401.1 534.05 401.9 535.35 403
L 544.1 410.25 545.5 410.6
Q 545.6 410.85 545.75 411.5 548.85 414.35 553 415.5"/>

<path id="Layer1_4_1_STROKES" stroke="#33CC99" stroke-width="5" stroke-linejoin="round" stroke-linecap="round" fill="none" d="
M 521.6 378.7
Q 521.4 376.5 521.4 371.95 521.4 354.6 532.7 344.85 543.45 335.55 561.4 335.55 578.05 335.55 598.8 355.35"/>

<path id="Layer1_5_1_STROKES" stroke="#33CC99" stroke-width="5" stroke-linejoin="round" stroke-linecap="round" fill="none" d="
M 522.4 365.65
Q 524.65 357.4 527.1 353.6 529.5 349.75 536.25 343.85"/>

<path id="Layer1_6_1_STROKES" stroke="#33CC99" stroke-width="5" stroke-linejoin="round" stroke-linecap="round" fill="none" d="
M 522 377.5
Q 526.95 393.1 540.1 404.6 554.45 417.1 570.9 417.1 584.4 417.1 596.45 405.6 608.5 394.1 608.5 381.15 608.5 378.35 607.4 373.95 606.95 372.25 605.35 367 604.65 364.75 601.95 361.4 597.55 355.9 597.45 355.75"/>

<path id="Layer1_7_1_STROKES" stroke="#33CC99" stroke-width="5" stroke-linejoin="round" stroke-linecap="round" fill="none" d="
M 597.45 353.75
Q 599.35 355.65 600.2 357 601.45 359.1 601.6 361.5
L 602 361.5"/>

<path id="Layer1_8_1_STROKES" stroke="#33CC99" stroke-width="5" stroke-linejoin="round" stroke-linecap="round" fill="none" d="
M 523 381.85
Q 523 380.4 522.7 376.85 522.4 373.35 522.4 371.85 522.4 371.15 522.6 369.45 522.8 367.8 522.8 366.45"/>

<path id="Layer1_9_1_STROKES" stroke="#33CC99" stroke-width="5" stroke-linejoin="round" stroke-linecap="round" fill="none" d="
M 522.8 365.65
Q 522.4 369.5 523.15 374.15 523.55 376.75 524.4 381.45
L 524.6 381.45
Q 522.9 373.45 523 366.8"/>
</defs>

<g transform="matrix( 1, 0, 0, 1, -79.6,0) ">
<use xlink:href="#Layer4_0_FILL"/>
</g>

<g transform="matrix( 1, 0, 0, 1, -196.65,-231.15) ">
<use xlink:href="#Layer4_1_1_STROKES"/>
</g>

<g transform="matrix( 1, 0, 0, 1, -79.6,0) ">
<use xlink:href="#Layer2_0_FILL"/>
</g>

<g transform="matrix( 1, 0, 0, 1, -79.6,0) ">
<use xlink:href="#Layer1_0_FILL"/>
</g>

<g transform="matrix( 0.991943359375, 0.1265869140625, -0.1265869140625, 0.991943359375, -260.9,-336.1) ">
<use xlink:href="#Layer1_1_1_STROKES" transform="matrix( 0.9919586181640625, -0.1265869140625, 0.1265869140625, 0.9919586181640625, 301.35,300.35) "/>
</g>

<g transform="matrix( 0.991943359375, 0.1265869140625, -0.1265869140625, 0.991943359375, -260.9,-336.1) ">
<use xlink:href="#Layer1_2_1_STROKES" transform="matrix( 0.9919586181640625, -0.1265869140625, 0.1265869140625, 0.9919586181640625, 301.35,300.35) "/>
</g>

<g transform="matrix( 1, 0, 0, 1, -196.65,-231.15) ">
<use xlink:href="#Layer1_3_1_STROKES"/>
</g>

<g transform="matrix( 1, 0, 0, 1, -196.65,-231.15) ">
<use xlink:href="#Layer1_4_1_STROKES"/>
</g>

<g transform="matrix( 1, 0, 0, 1, -196.65,-231.15) ">
<use xlink:href="#Layer1_5_1_STROKES"/>
</g>

<g transform="matrix( 1, 0, 0, 1, -196.65,-231.15) ">
<use xlink:href="#Layer1_6_1_STROKES"/>
</g>

<g transform="matrix( 1, 0, 0, 1, -196.65,-231.15) ">
<use xlink:href="#Layer1_7_1_STROKES"/>
</g>

<g transform="matrix( 1, 0, 0, 1, -196.65,-231.15) ">
<use xlink:href="#Layer1_8_1_STROKES"/>
</g>

<g transform="matrix( 1, 0, 0, 1, -196.65,-231.15) ">
<use xlink:href="#Layer1_9_1_STROKES"/>
</g>
</svg>
